<svg width="712" height="713" viewBox="0 0 712 713" fill="none" xmlns="http://www.w3.org/2000/svg">
<g clip-path="url(#clip0_363_2058)">
<path d="M711.951 545.314H0V545.67H711.951V545.314Z" fill="#EBEBEB"/>
<path d="M640.615 568.226H619.398V568.582H640.615V568.226Z" fill="#EBEBEB"/>
<path d="M471.624 572.099H459.25V572.455H471.624V572.099Z" fill="#EBEBEB"/>
<path d="M613.388 555.012H564.705V555.368H613.388V555.012Z" fill="#EBEBEB"/>
<path d="M156.102 562.359H94.6035V562.715H156.102V562.359Z" fill="#EBEBEB"/>
<path d="M190.958 562.359H168.773V562.715H190.958V562.359Z" fill="#EBEBEB"/>
<path d="M362.754 557.574H229.363V557.93H362.754V557.574Z" fill="#EBEBEB"/>
<path d="M337.466 481.808H62.5244C60.3706 481.805 58.3062 480.946 56.7845 479.422C55.2628 477.898 54.4082 475.832 54.4082 473.678V87.1882C54.427 85.0467 55.2899 82.999 56.8095 81.49C58.3292 79.9811 60.3829 79.1326 62.5244 79.1289H337.466C339.622 79.1289 341.69 79.9855 343.215 81.5103C344.74 83.035 345.596 85.103 345.596 87.2594V473.678C345.596 475.834 344.74 477.902 343.215 479.427C341.69 480.952 339.622 481.808 337.466 481.808ZM62.5244 79.4137C60.465 79.4175 58.4912 80.2382 57.0362 81.6958C55.5813 83.1534 54.7642 85.1287 54.7642 87.1882V473.678C54.7642 475.737 55.5813 477.713 57.0362 479.17C58.4912 480.628 60.465 481.449 62.5244 481.453H337.466C339.527 481.449 341.502 480.628 342.959 479.171C344.416 477.714 345.237 475.739 345.24 473.678V87.1882C345.237 85.1274 344.416 83.1521 342.959 81.6949C341.502 80.2378 339.527 79.4175 337.466 79.4137H62.5244Z" fill="#EBEBEB"/>
<path d="M645.469 481.808H370.513C368.358 481.805 366.292 480.947 364.768 479.423C363.244 477.899 362.387 475.833 362.383 473.678V87.1882C362.405 85.0454 363.271 82.9978 364.793 81.4892C366.315 79.9806 368.37 79.1325 370.513 79.1289H645.469C647.608 79.1363 649.658 79.9865 651.175 81.495C652.691 83.0036 653.552 85.0491 653.571 87.1882V473.678C653.571 475.829 652.718 477.893 651.2 479.417C649.681 480.941 647.62 481.801 645.469 481.808ZM370.513 79.4137C368.453 79.4175 366.477 80.2378 365.02 81.6949C363.563 83.1521 362.743 85.1274 362.739 87.1882V473.678C362.743 475.739 363.563 477.714 365.02 479.171C366.477 480.628 368.453 481.449 370.513 481.453H645.469C647.53 481.449 649.505 480.628 650.962 479.171C652.419 477.714 653.24 475.739 653.243 473.678V87.1882C653.24 85.1274 652.419 83.1521 650.962 81.6949C649.505 80.2378 647.53 79.4175 645.469 79.4137H370.513Z" fill="#EBEBEB"/>
<path d="M315.396 534.92H326.645V457.887H315.396V534.92Z" fill="#F0F0F0"/>
<path d="M87.869 545.314H319.225V534.92H87.869V545.314Z" fill="#F0F0F0"/>
<path d="M315.396 457.887H80.4375V534.92H315.396V457.887Z" fill="#F5F5F5"/>
<path d="M300.187 471.3H95.6289V515.298H300.187V471.3Z" fill="#F0F0F0"/>
<path d="M148.157 477.181H247.688C249.552 477.181 251.062 475.67 251.062 473.806V473.18C251.062 471.316 249.552 469.805 247.688 469.805H148.157C146.293 469.805 144.782 471.316 144.782 473.18V473.806C144.782 475.67 146.293 477.181 148.157 477.181Z" fill="#F5F5F5"/>
<path d="M75.2819 457.887L315.395 457.887V451.009L75.2819 451.009V457.887Z" fill="#F0F0F0"/>
<path d="M332.04 451.01H315.395V457.887H332.04V451.01Z" fill="#E6E6E6"/>
<path d="M306.81 349.4L607.865 349.4V118.515L306.81 118.515V349.4Z" fill="#E6E6E6"/>
<path d="M278.63 109.529H624.894C625.585 109.529 626.248 109.804 626.737 110.293C627.225 110.781 627.5 111.444 627.5 112.135C627.496 112.824 627.22 113.483 626.732 113.968C626.244 114.454 625.583 114.727 624.894 114.727H278.63C278.286 114.728 277.946 114.662 277.628 114.532C277.31 114.402 277.021 114.211 276.778 113.968C276.535 113.726 276.341 113.438 276.209 113.121C276.078 112.804 276.01 112.464 276.01 112.121C276.012 111.779 276.081 111.44 276.214 111.125C276.346 110.809 276.54 110.523 276.783 110.282C277.026 110.042 277.315 109.851 277.631 109.722C277.948 109.593 278.288 109.527 278.63 109.529Z" fill="#E6E6E6"/>
<path d="M295.645 349.4L602.652 349.4V118.515L295.645 118.515V349.4Z" fill="#F0F0F0"/>
<path d="M306.808 349.4H607.864V356.79H299.119L306.808 349.4Z" fill="#E6E6E6"/>
<path d="M277.048 349.4H584.055L576.366 356.79H269.373L277.048 349.4Z" fill="#F0F0F0"/>
<path d="M587.018 333.779V134.134L311.265 134.134V333.779H587.018Z" fill="#FAFAFA"/>
<path d="M495.005 333.765L403.32 134.134H360.02L451.719 333.765H495.005Z" fill="white"/>
<path d="M442.422 333.765L350.723 134.134H333.85L425.549 333.765H442.422Z" fill="white"/>
<path d="M313.258 333.779V134.134H311.279V333.779H313.258Z" fill="#E6E6E6"/>
<g opacity="0.4">
<path d="M586.847 295.377H613.73V104.845H586.847V295.377Z" fill="#F0F0F0"/>
<path d="M576.365 295.377H597.311V104.845H576.365V295.377Z" fill="#E6E6E6"/>
<path d="M559.962 295.377H586.846V104.845H559.962V295.377Z" fill="#F0F0F0"/>
<path d="M549.484 295.377H570.43V104.845H549.484V295.377Z" fill="#E6E6E6"/>
<path d="M533.066 295.377H559.949V104.845H533.066V295.377Z" fill="#F0F0F0"/>
</g>
<g opacity="0.4">
<path d="M321.289 295.377H336.781V104.845H321.289V295.377Z" fill="#F0F0F0"/>
<path d="M315.236 295.377H327.311V104.845H315.236V295.377Z" fill="#E6E6E6"/>
<path d="M305.781 295.377H321.273V104.845H305.781V295.377Z" fill="#F0F0F0"/>
<path d="M299.744 295.377H311.818V104.845H299.744V295.377Z" fill="#E6E6E6"/>
<path d="M290.291 295.377H305.783V104.845H290.291V295.377Z" fill="#F0F0F0"/>
</g>
<path d="M223.837 104.973H100.143V421.022H223.837V104.973Z" fill="#F5F5F5"/>
<path d="M223.851 421.008H227.24L227.24 104.958H223.851L223.851 421.008Z" fill="#E0E0E0"/>
<path d="M212.375 409.56L212.375 116.421H111.591L111.591 409.56H212.375Z" fill="white"/>
<path d="M147.074 409.56L180.522 116.421H199.816L166.382 409.56H147.074Z" fill="#FAFAFA"/>
<path d="M130.359 409.56L163.793 116.421H173.447L140.013 409.56H130.359Z" fill="#FAFAFA"/>
<path d="M355.975 609.618C508.45 609.618 632.055 602.401 632.055 593.499C632.055 584.597 508.45 577.381 355.975 577.381C203.5 577.381 79.8945 584.597 79.8945 593.499C79.8945 602.401 203.5 609.618 355.975 609.618Z" fill="#F5F5F5"/>
<path d="M566.785 593.5H400.473C398.156 593.525 395.86 593.067 393.729 592.155C391.599 591.244 389.682 589.899 388.1 588.206C386.518 586.513 385.306 584.509 384.541 582.322C383.776 580.134 383.475 577.812 383.657 575.502L406.867 223.698C407.255 218.851 409.435 214.323 412.981 210.995C416.527 207.668 421.185 205.78 426.047 205.7H592.344C594.66 205.677 596.955 206.136 599.084 207.049C601.212 207.961 603.128 209.306 604.708 210.999C606.289 212.692 607.499 214.696 608.263 216.882C609.028 219.068 609.328 221.389 609.146 223.698L585.965 575.502C585.576 580.349 583.397 584.877 579.851 588.205C576.305 591.532 571.647 593.42 566.785 593.5Z" fill="#263238"/>
<path d="M601.8 300.303H581.666C581.107 300.309 580.553 300.198 580.039 299.978C579.525 299.758 579.063 299.433 578.681 299.025C578.299 298.616 578.007 298.133 577.822 297.605C577.637 297.078 577.564 296.517 577.608 295.96L579.616 265.489C579.728 264.33 580.263 263.254 581.12 262.465C581.976 261.677 583.094 261.233 584.258 261.217H604.377C604.93 261.212 605.478 261.321 605.986 261.537C606.495 261.752 606.954 262.07 607.335 262.471C607.715 262.872 608.009 263.346 608.199 263.865C608.388 264.385 608.469 264.937 608.435 265.489L606.428 295.96C606.336 297.13 605.81 298.224 604.954 299.027C604.098 299.83 602.974 300.285 601.8 300.303Z" fill="#263238"/>
<path d="M469.576 200.716H462.215V202.14H469.576V200.716Z" fill="#407BFF"/>
<path d="M453.142 200.716H426.373V202.14H453.142V200.716Z" fill="#407BFF"/>
<path d="M564.251 593.499H397.939C395.623 593.522 393.327 593.063 391.197 592.15C389.068 591.238 387.152 589.893 385.57 588.2C383.989 586.508 382.777 584.505 382.011 582.318C381.245 580.132 380.943 577.81 381.123 575.501L404.389 223.697C404.778 218.85 406.958 214.322 410.503 210.994C414.049 207.667 418.707 205.779 423.569 205.699H589.881C592.188 205.69 594.473 206.16 596.589 207.078C598.706 207.997 600.61 209.344 602.179 211.036C603.749 212.727 604.951 214.725 605.709 216.905C606.467 219.084 606.765 221.397 606.583 223.697L583.431 575.501C583.042 580.348 580.862 584.877 577.316 588.204C573.771 591.531 569.113 593.419 564.251 593.499Z" fill="#407BFF"/>
<path d="M571.797 552.52H395.845C394.529 552.534 393.224 552.274 392.014 551.756C390.804 551.238 389.715 550.474 388.816 549.513C387.918 548.551 387.229 547.413 386.794 546.17C386.359 544.928 386.188 543.609 386.291 542.297L406.496 236.015C406.714 233.269 407.946 230.702 409.951 228.812C411.956 226.923 414.592 225.846 417.346 225.792H593.34C594.656 225.778 595.961 226.038 597.171 226.556C598.381 227.073 599.47 227.838 600.369 228.799C601.268 229.761 601.956 230.899 602.391 232.141C602.826 233.384 602.998 234.703 602.895 236.015L582.69 542.297C582.47 545.05 581.233 547.623 579.219 549.513C577.205 551.404 574.559 552.476 571.797 552.52Z" fill="white"/>
<path d="M538.978 225.791H504.036L419.385 552.52H454.327L538.978 225.791Z" fill="#FAFAFA"/>
<path d="M569.761 225.791H552.29L467.639 552.52H485.11L569.761 225.791Z" fill="#FAFAFA"/>
<path d="M546.552 451.28L508.563 307.594C507.547 303.774 505.058 300.513 501.641 298.524C498.225 296.536 494.16 295.983 490.337 296.986L400.46 320.737L388.471 508.493L535.944 469.521C539.763 468.498 543.022 466.006 545.01 462.588C546.998 459.171 547.552 455.105 546.552 451.28Z" fill="#F0F0F0"/>
<path opacity="0.2" d="M490.182 576.845C494.748 572.427 495.1 565.381 490.966 561.108C486.833 556.835 479.779 556.953 475.212 561.371C470.646 565.789 470.294 572.834 474.428 577.107C478.562 581.38 485.615 581.263 490.182 576.845Z" fill="white"/>
<path opacity="0.2" d="M510.656 215.169C510.557 216.409 509.998 217.568 509.09 218.419C508.181 219.269 506.988 219.75 505.743 219.768C505.154 219.77 504.57 219.649 504.029 219.414C503.488 219.179 503.002 218.835 502.601 218.403C502.199 217.971 501.892 217.461 501.698 216.904C501.503 216.347 501.426 215.756 501.472 215.169C501.568 213.927 502.125 212.766 503.034 211.915C503.944 211.063 505.139 210.583 506.384 210.569C506.974 210.568 507.557 210.688 508.098 210.923C508.639 211.158 509.125 211.502 509.527 211.934C509.928 212.366 510.235 212.876 510.43 213.433C510.624 213.99 510.701 214.581 510.656 215.169Z" fill="white"/>
<path opacity="0.2" d="M508.577 215.169C508.527 215.851 508.223 216.49 507.725 216.96C507.227 217.429 506.57 217.694 505.886 217.703C505.559 217.708 505.235 217.645 504.935 217.517C504.634 217.389 504.364 217.2 504.141 216.961C503.918 216.722 503.748 216.439 503.642 216.13C503.535 215.822 503.494 215.494 503.522 215.169C503.572 214.486 503.876 213.847 504.374 213.378C504.873 212.908 505.529 212.643 506.213 212.634C506.54 212.629 506.864 212.692 507.165 212.82C507.465 212.948 507.735 213.137 507.958 213.376C508.181 213.615 508.351 213.898 508.458 214.207C508.564 214.516 508.605 214.843 508.577 215.169Z" fill="white"/>
<path d="M241.092 197.398C246.403 184.341 244.495 168.436 229.43 164.876C226.111 164.021 222.637 163.956 219.287 164.685C215.938 165.415 212.806 166.919 210.142 169.077C207.479 171.235 205.358 173.987 203.95 177.113C202.542 180.238 201.886 183.65 202.034 187.075C202.632 201.314 212.002 213.175 195.584 223.498C179.166 233.822 180.918 264.934 212.671 258.925C244.424 252.916 227.266 236.584 227.266 236.584C227.266 236.584 219.477 242.935 216.971 236.47C213.796 228.098 234.941 212.677 241.092 197.398Z" fill="#263238"/>
<path d="M185.219 240.229L184.521 240.072C186.643 230.575 189.975 228.126 193.492 225.534C197.009 222.943 200.341 220.479 203.032 211.139C204.299 206.739 203.502 201.869 202.719 197.17C201.722 191.175 200.697 184.967 203.787 179.414L204.399 179.77C201.437 185.095 202.448 191.161 203.417 197.056C204.214 201.841 205.04 206.781 203.716 211.295C200.968 220.864 197.379 223.498 193.919 226.061C190.459 228.624 187.284 231.002 185.219 240.229Z" fill="#263238"/>
<path d="M281.531 269.12C281.63 269.604 281.801 270.33 281.958 270.985L282.456 272.993C282.798 274.346 283.182 275.699 283.581 277.051C284.393 279.742 285.261 282.462 286.201 285.139C288.08 290.526 290.229 295.815 292.637 300.987L294.431 304.732C294.735 305.401 295.165 306.006 295.698 306.512C297.299 307.799 299.209 308.643 301.237 308.961C306.562 309.822 311.989 309.822 317.313 308.961L319.236 315.013C317.762 315.662 316.256 316.232 314.722 316.721C313.198 317.228 311.648 317.656 310.08 318.003C306.814 318.755 303.461 319.066 300.113 318.928C296.172 318.817 292.34 317.609 289.049 315.44C287.197 314.155 285.635 312.496 284.464 310.57L284.236 310.214L284.094 309.972L283.809 309.459L283.225 308.463L282.072 306.441C279.092 301.01 276.476 295.387 274.24 289.61C273.158 286.762 272.09 283.786 271.222 280.782C270.794 279.358 270.367 277.777 269.983 276.24C269.598 274.702 269.257 273.249 268.943 271.427L281.531 269.12Z" fill="#FFC3BD"/>
<path d="M270.54 249.213C284.907 255.621 284.779 277.15 284.779 277.15L269.643 286.249C269.643 286.249 258.252 269.39 259.106 261.73C259.946 253.741 262.396 245.611 270.54 249.213Z" fill="#407BFF"/>
<path opacity="0.2" d="M272.803 267.583C268.873 263.61 265.413 268.195 262.252 273.278C264.42 277.773 266.889 282.116 269.642 286.278L275.85 282.548C277.075 277.806 276.719 271.569 272.803 267.583Z" fill="black"/>
<path d="M315.82 309.502L325.93 304.461L326.044 317.689C326.044 317.689 318.497 318.999 313.471 313.702L315.82 309.502Z" fill="#FFC3BD"/>
<path d="M336.794 306.81L335.057 316.635L326.044 317.689L325.93 304.461L336.794 306.81Z" fill="#FFC3BD"/>
<path d="M223.281 582.991L235.783 584.187L241.607 555.096L229.105 553.9L223.281 582.991Z" fill="#FFC3BD"/>
<path d="M141.307 548.889L151.473 556.293L168.432 532.229L158.251 524.825L141.307 548.889Z" fill="#FFC3BD"/>
<path d="M155.204 551.665L146.831 540.203C146.692 540 146.482 539.855 146.243 539.797C146.004 539.74 145.752 539.772 145.535 539.889L135.497 545.215C135.249 545.359 135.034 545.553 134.866 545.786C134.699 546.019 134.582 546.285 134.524 546.566C134.466 546.847 134.469 547.137 134.531 547.417C134.593 547.697 134.713 547.96 134.884 548.191C137.875 552.135 139.512 553.886 143.2 558.941C145.478 562.045 150.035 569.236 153.167 573.522C156.3 577.808 160.7 574.946 159.789 572.881C155.659 563.612 155.517 558.186 155.83 553.844C155.89 553.066 155.667 552.292 155.204 551.665Z" fill="#263238"/>
<path d="M237.435 580.414H222.427C222.157 580.414 221.895 580.504 221.681 580.669C221.467 580.833 221.314 581.064 221.245 581.325L217.984 593.158C217.904 593.438 217.891 593.733 217.945 594.019C217.999 594.305 218.12 594.574 218.297 594.805C218.474 595.036 218.703 595.223 218.965 595.35C219.227 595.477 219.515 595.54 219.807 595.536C225.103 595.536 227.61 595.536 234.202 595.536H254.379C259.861 595.536 261 589.997 258.736 589.484C248.569 587.234 242.703 584.13 239.556 581.168C238.97 580.658 238.212 580.388 237.435 580.414Z" fill="#263238"/>
<path opacity="0.2" d="M241.606 555.111L238.601 570.105H225.857L229.104 553.915L241.606 555.111Z" fill="black"/>
<path opacity="0.2" d="M158.251 524.825L168.431 532.244L159.689 544.646L149.508 537.227L158.251 524.825Z" fill="black"/>
<path d="M276.463 260.563C275.58 270.174 272.391 289.041 263.064 325.906L211.889 321.477C214.353 302.269 215.506 289.824 210.693 253.458C210.537 252.255 210.629 251.034 210.964 249.869C211.3 248.704 211.871 247.621 212.643 246.686C213.415 245.751 214.371 244.985 215.451 244.436C216.531 243.886 217.713 243.564 218.923 243.49C222.611 243.291 226.997 243.163 231.397 243.334C239.181 243.45 246.946 244.121 254.635 245.341C259.148 246.153 263.961 247.32 267.877 248.346C270.521 249.038 272.835 250.646 274.407 252.882C275.979 255.119 276.707 257.84 276.463 260.563Z" fill="#407BFF"/>
<path opacity="0.2" d="M212.002 264.108C212.657 269.804 213.141 274.887 213.426 279.444C218.139 279.031 221.613 273.862 221.969 263.055C220.204 257.829 216.003 259.723 212.002 264.108Z" fill="black"/>
<path d="M263.066 325.905C263.066 325.905 280.381 402.511 268.762 456.52C261.03 492.687 243.815 565.747 243.815 565.747L221.986 565.192C221.986 565.192 232.409 488.515 236.781 458.399C244.256 406.826 225.532 322.716 225.532 322.716L263.066 325.905Z" fill="#263238"/>
<path opacity="0.2" d="M243.103 341.384L232.182 358.599C235.47 379.01 237.558 399.597 238.433 420.254C253.782 392.772 246.506 355.922 243.103 341.384Z" fill="black"/>
<path d="M246.947 566.887L219.979 566.203L221.545 557.916L249.055 559.212L246.947 566.887Z" fill="#407BFF"/>
<path d="M251.871 325.094C251.871 325.094 241.719 406.328 219.691 450.682C201.906 486.508 164.7 543.45 164.7 543.45L151.102 532.557C151.102 532.557 174.368 469.578 187.582 445.784C220.004 387.404 193.505 342.907 211.888 321.478L251.871 325.094Z" fill="#263238"/>
<path d="M464.826 252.803L222.797 354.493C215.199 357.686 211.627 366.433 214.819 374.031L272.385 511.042C275.578 518.64 284.325 522.211 291.923 519.019L533.953 417.329C541.551 414.136 545.122 405.389 541.93 397.791L484.364 260.78C481.172 253.182 472.424 249.611 464.826 252.803Z" fill="#407BFF"/>
<path opacity="0.1" d="M464.826 252.803L222.797 354.493C215.199 357.686 211.627 366.433 214.819 374.031L272.385 511.042C275.578 518.64 284.325 522.211 291.923 519.019L533.953 417.329C541.551 414.136 545.122 405.389 541.93 397.791L484.364 260.78C481.172 253.182 472.424 249.611 464.826 252.803Z" fill="black"/>
<path opacity="0.2" d="M289.557 348.393L242.167 368.304C238.513 369.839 236.795 374.046 238.331 377.7L248.319 401.474C249.855 405.128 254.061 406.846 257.715 405.31L305.105 385.399C308.759 383.864 310.477 379.657 308.942 376.003L298.953 352.229C297.418 348.575 293.211 346.858 289.557 348.393Z" fill="white"/>
<path opacity="0.4" d="M322.813 442.369L276.381 461.877C275.011 462.453 274.367 464.031 274.943 465.401L278.467 473.789C279.043 475.16 280.621 475.804 281.991 475.228L328.422 455.72C329.793 455.144 330.437 453.566 329.861 452.196L326.337 443.808C325.761 442.437 324.183 441.793 322.813 442.369Z" fill="white"/>
<path opacity="0.4" d="M383.223 416.995L336.792 436.503C335.421 437.079 334.777 438.657 335.353 440.027L338.877 448.415C339.453 449.786 341.031 450.43 342.401 449.854L388.833 430.346C390.203 429.77 390.847 428.192 390.271 426.822L386.747 418.434C386.171 417.063 384.593 416.419 383.223 416.995Z" fill="white"/>
<path opacity="0.4" d="M443.616 391.62L397.184 411.128C395.814 411.704 395.17 413.282 395.746 414.652L399.27 423.04C399.846 424.411 401.423 425.055 402.793 424.479L449.225 404.97C450.595 404.395 451.239 402.817 450.664 401.447L447.139 393.059C446.564 391.688 444.986 391.044 443.616 391.62Z" fill="white"/>
<path opacity="0.4" d="M504.026 366.245L457.594 385.753C456.224 386.329 455.58 387.907 456.156 389.277L459.68 397.665C460.256 399.036 461.833 399.68 463.204 399.104L509.635 379.595C511.006 379.02 511.65 377.442 511.074 376.072L507.549 367.684C506.974 366.313 505.396 365.669 504.026 366.245Z" fill="white"/>
<path d="M166.124 544.959L148.682 531.759L152.968 524.099L171.507 538.48L166.124 544.959Z" fill="#407BFF"/>
<path d="M211.375 318.416L208.67 322.802C208.456 323.129 208.855 323.542 209.439 323.585L263.12 328.227C263.575 328.227 263.974 328.07 264.031 327.785L264.885 323.243C264.957 322.93 264.572 322.631 264.074 322.588L212.244 318.103C212.084 318.077 211.921 318.093 211.769 318.147C211.617 318.202 211.482 318.295 211.375 318.416Z" fill="#407BFF"/>
<path opacity="0.5" d="M211.375 318.416L208.67 322.802C208.456 323.129 208.855 323.542 209.439 323.585L263.12 328.227C263.575 328.227 263.974 328.07 264.031 327.785L264.885 323.243C264.957 322.93 264.572 322.631 264.074 322.588L212.244 318.103C212.084 318.077 211.921 318.093 211.769 318.147C211.617 318.202 211.482 318.295 211.375 318.416Z" fill="black"/>
<path d="M217.854 324.809L216.43 324.695C216.16 324.695 215.961 324.51 215.989 324.339L217.157 318.444C217.157 318.259 217.441 318.145 217.726 318.173L219.15 318.287C219.435 318.287 219.634 318.472 219.592 318.643L218.424 324.538C218.367 324.709 218.111 324.837 217.854 324.809Z" fill="#407BFF"/>
<path d="M259.147 328.383L257.723 328.269C257.453 328.269 257.254 328.084 257.282 327.913L258.45 322.018C258.501 321.916 258.585 321.834 258.688 321.785C258.791 321.736 258.908 321.723 259.019 321.748L260.443 321.862C260.728 321.862 260.927 322.047 260.884 322.217L259.717 328.112C259.703 328.312 259.446 328.411 259.147 328.383Z" fill="#407BFF"/>
<path d="M238.502 326.604L237.078 326.476C236.793 326.476 236.594 326.291 236.637 326.12L237.804 320.225C237.804 320.054 238.089 319.926 238.36 319.954L239.783 320.082C240.054 320.082 240.253 320.267 240.225 320.438L239.057 326.333C239.029 326.504 238.787 326.618 238.502 326.604Z" fill="#407BFF"/>
<path d="M158.393 558.002C158.232 558.029 158.069 558.029 157.909 558.002C156.356 557.688 155.061 555.054 154.377 553.516C154.35 553.476 154.336 553.429 154.336 553.381C154.336 553.333 154.35 553.286 154.377 553.246C154.414 553.218 154.459 553.203 154.505 553.203C154.552 553.203 154.597 553.218 154.634 553.246C155.118 553.417 159.361 555.054 159.688 556.606C159.728 556.774 159.719 556.95 159.664 557.114C159.609 557.277 159.509 557.422 159.375 557.532C159.106 557.789 158.762 557.953 158.393 558.002ZM155.075 553.844C156.043 555.966 157.125 557.318 158.008 557.489C158.208 557.519 158.411 557.498 158.601 557.429C158.79 557.359 158.958 557.243 159.09 557.09C159.162 557.037 159.216 556.964 159.246 556.881C159.276 556.797 159.282 556.707 159.261 556.62C159.062 555.666 156.542 554.442 155.075 553.844Z" fill="#407BFF"/>
<path d="M158.521 554.043C157.168 554.211 155.794 554.064 154.506 553.616C154.466 553.598 154.432 553.57 154.407 553.535C154.382 553.5 154.367 553.459 154.363 553.416C154.358 553.373 154.364 553.329 154.382 553.289C154.399 553.249 154.427 553.214 154.463 553.189C154.591 553.103 157.524 550.967 159.29 551.366C159.508 551.408 159.714 551.497 159.894 551.627C160.074 551.758 160.222 551.926 160.329 552.121C160.47 552.299 160.547 552.52 160.547 552.747C160.547 552.974 160.47 553.195 160.329 553.374C159.823 553.8 159.183 554.037 158.521 554.043ZM155.203 553.288C156.627 553.701 159.29 553.73 159.945 553.003C160.059 552.89 160.159 552.704 159.945 552.334C159.875 552.202 159.775 552.087 159.655 551.998C159.534 551.909 159.395 551.849 159.247 551.822C158.051 551.58 156.001 552.761 155.203 553.288Z" fill="#407BFF"/>
<path d="M244.098 582.834C242.718 582.799 241.344 582.628 239.998 582.322C239.952 582.302 239.913 582.269 239.886 582.227C239.858 582.185 239.844 582.137 239.844 582.087C239.844 582.037 239.858 581.988 239.886 581.946C239.913 581.905 239.952 581.872 239.998 581.852C240.624 581.553 246.063 579.004 247.43 579.972C247.557 580.053 247.658 580.168 247.721 580.304C247.784 580.441 247.807 580.592 247.786 580.741C247.783 581.02 247.714 581.294 247.586 581.541C247.457 581.789 247.272 582.002 247.046 582.165C246.16 582.697 245.127 582.931 244.098 582.834ZM240.852 581.98C242.475 582.279 245.465 582.678 246.69 581.752C246.849 581.627 246.979 581.47 247.072 581.291C247.166 581.111 247.22 580.914 247.231 580.713C247.231 580.513 247.231 580.428 247.103 580.385C246.334 579.858 243.116 580.983 240.852 581.98Z" fill="#407BFF"/>
<path d="M240.054 582.322C240.004 582.342 239.948 582.342 239.898 582.322C239.861 582.295 239.833 582.257 239.818 582.214C239.802 582.171 239.801 582.124 239.812 582.08C239.812 581.838 241.094 576.47 244.084 576.812C244.824 576.911 245.024 577.267 245.066 577.566C245.252 578.99 241.82 581.696 240.168 582.365L240.054 582.322ZM243.785 577.239C241.891 577.239 240.795 580.371 240.425 581.624C242.204 580.685 244.696 578.449 244.54 577.58C244.54 577.509 244.54 577.31 243.984 577.253L243.785 577.239Z" fill="#407BFF"/>
<path d="M217.556 264.364L216.801 265.432L215.975 266.642C215.42 267.468 214.865 268.308 214.338 269.177C213.256 270.886 212.273 272.666 211.276 274.445C209.308 278.026 207.577 281.731 206.093 285.538C204.598 289.322 203.347 293.198 202.348 297.142L201.679 299.99C201.679 299.905 201.594 300.204 201.75 300.745C202.241 302.267 202.956 303.707 203.872 305.017C206.172 308.323 208.754 311.425 211.59 314.286C214.437 317.305 217.598 320.224 220.745 323.129C223.892 326.033 227.196 328.824 230.499 331.572C233.803 334.32 237.177 337.097 240.466 339.774L236.907 345.028C229.279 340.504 221.915 335.551 214.85 330.191C211.291 327.514 207.802 324.695 204.427 321.648C200.889 318.546 197.66 315.108 194.788 311.381C193.066 309.193 191.719 306.734 190.801 304.105C190.177 302.275 189.968 300.33 190.188 298.41V298.011V297.797L190.26 297.37L190.402 296.502L190.701 294.779C191.539 290.193 192.719 285.676 194.232 281.266C195.797 276.878 197.647 272.597 199.771 268.451C200.839 266.372 202.007 264.364 203.26 262.385C203.872 261.388 204.513 260.406 205.182 259.423L206.236 257.999C206.606 257.501 206.919 257.06 207.418 256.447L217.556 264.364Z" fill="#FFC3BD"/>
<path d="M216.29 244.302C206.522 246.865 197.096 270.545 197.096 270.545L209.74 282.107C209.74 282.107 229.603 263.995 228.934 255.821C228.379 248.873 224.136 242.223 216.29 244.302Z" fill="#407BFF"/>
<path opacity="0.2" d="M231.397 242.878C229.608 243.243 227.784 243.41 225.958 243.376C225.574 250.41 230.087 257.202 241.18 266.315C243.842 258.014 249.723 256.22 249.723 256.22L231.397 242.878Z" fill="black"/>
<path opacity="0.2" d="M254.635 245.113C254.635 245.113 255.931 245.298 259.02 246.01C261.085 249.186 263.762 258.968 257.682 265.945C255.318 257.402 249.68 256.319 249.68 256.319L254.635 245.113Z" fill="black"/>
<path d="M231.395 242.878C231.395 242.878 228.548 242.878 225.073 242.878C223.009 246.053 230.114 254.853 241.192 263.966C243.855 255.665 249.735 256.163 249.735 256.163L231.395 242.878Z" fill="white"/>
<path d="M254.635 245.113C254.635 245.113 255.931 245.298 259.02 246.01C261.085 249.186 265.542 257.786 259.462 264.706C257.098 256.163 249.68 256.277 249.68 256.277L254.635 245.113Z" fill="white"/>
<path d="M235.967 217.319C236.793 224.923 237.064 238.678 231.396 243.291C231.396 243.291 234.344 251.835 249.679 256.277C258.906 250.952 254.635 245.299 254.635 245.299C246.476 242.594 247.23 236.428 249.181 230.732L235.967 217.319Z" fill="#FFC3BD"/>
<path opacity="0.2" d="M241.348 222.801L249.18 230.732C248.7 232.05 248.338 233.408 248.098 234.79C244.951 234.064 240.394 230.789 240.352 227.428C240.41 225.839 240.747 224.273 241.348 222.801Z" fill="black"/>
<path d="M253.281 186.932C255.773 184.184 260.714 187.687 262.536 194.422C265.27 204.389 257.98 205.101 254.164 200.118C250.348 195.134 251.202 189.225 253.281 186.932Z" fill="#263238"/>
<path d="M260.998 204.432C263.498 205.298 265.862 206.515 268.018 208.049C266.779 205.03 265.668 203.194 260.998 204.432Z" fill="#263238"/>
<path d="M262.439 204.902C264.464 204.499 266.534 204.384 268.591 204.56C266.569 203.008 265.102 202.239 262.439 204.902Z" fill="#263238"/>
<path d="M229.248 205.443C232.423 217.589 233.519 222.801 240.952 227.884C252.158 235.545 266.383 228.995 266.91 216.137C267.38 204.575 262.111 186.662 249.111 184.128C246.246 183.546 243.28 183.709 240.496 184.602C237.712 185.494 235.204 187.085 233.211 189.224C231.218 191.363 229.807 193.977 229.113 196.817C228.419 199.656 228.466 202.627 229.248 205.443Z" fill="#FFC3BD"/>
<path d="M235.111 189.425L231.594 193.511C230.539 194.719 229.051 195.461 227.451 195.579C225.852 195.696 224.271 195.178 223.051 194.138C221.842 193.084 221.096 191.597 220.976 189.998C220.856 188.398 221.371 186.816 222.41 185.594L225.927 181.522C226.983 180.316 228.47 179.573 230.068 179.453C231.666 179.333 233.247 179.846 234.471 180.881C235.677 181.936 236.42 183.423 236.54 185.022C236.66 186.62 236.147 188.201 235.111 189.425Z" fill="white"/>
<path d="M238.358 193.98L234.087 196.116C232.333 196.975 230.312 197.105 228.463 196.478C226.614 195.851 225.088 194.518 224.219 192.77C223.36 191.015 223.229 188.991 223.856 187.14C224.483 185.289 225.816 183.76 227.565 182.888L231.837 180.752C233.594 179.894 235.619 179.766 237.471 180.395C239.322 181.025 240.849 182.361 241.719 184.113C242.576 185.868 242.704 187.891 242.075 189.74C241.445 191.589 240.109 193.114 238.358 193.98Z" fill="#407BFF"/>
<path d="M232.89 214.528C232.89 214.528 241.661 212.52 237.93 199.691C237.791 199.197 237.767 198.678 237.859 198.174C237.951 197.669 238.158 197.192 238.463 196.78C238.768 196.368 239.164 196.031 239.619 195.795C240.075 195.559 240.578 195.43 241.091 195.419C250.973 195.149 260.214 193.084 258.904 187.36C257.267 180.126 232.648 174.545 228.177 189.026C219.448 191.062 219.12 208.263 232.89 214.528Z" fill="#263238"/>
<path d="M232.936 211.993C235.436 212.858 237.8 214.076 239.955 215.61C238.717 212.62 237.606 210.783 232.936 211.993Z" fill="#263238"/>
<path d="M234.373 212.492C236.397 212.089 238.468 211.974 240.524 212.15C238.517 210.626 237.05 209.843 234.373 212.492Z" fill="#263238"/>
<path d="M227.254 214.983C228.391 217.129 230.331 218.736 232.651 219.455C235.74 220.38 237.335 217.646 236.538 214.699C235.812 212.05 233.334 208.391 230.216 208.747C229.537 208.841 228.893 209.102 228.341 209.507C227.788 209.911 227.345 210.447 227.052 211.066C226.758 211.684 226.623 212.366 226.658 213.05C226.693 213.734 226.898 214.398 227.254 214.983Z" fill="#FFC3BD"/>
<path d="M249.837 205.03C250.037 206.027 250.734 206.739 251.375 206.611C252.016 206.483 252.4 205.557 252.215 204.56C252.03 203.564 251.318 202.852 250.663 202.98C250.008 203.108 249.638 204.019 249.837 205.03Z" fill="#263238"/>
<path d="M261.156 202.795C261.355 203.806 262.038 204.504 262.693 204.376C263.348 204.248 263.719 203.336 263.519 202.34C263.32 201.343 262.636 200.631 261.981 200.759C261.326 200.887 260.956 201.799 261.156 202.795Z" fill="#263238"/>
<path d="M261.711 200.873L263.975 199.705C263.975 199.705 263.106 201.827 261.711 200.873Z" fill="#263238"/>
<path d="M257.27 205.302C258.61 207.413 260.234 209.329 262.097 210.997C261.662 211.473 261.128 211.848 260.532 212.094C259.937 212.34 259.294 212.452 258.651 212.421L257.27 205.302Z" fill="#ED847E"/>
<path d="M254.023 217.134C251.916 217.161 249.879 216.381 248.328 214.955C248.282 214.907 248.256 214.844 248.256 214.777C248.256 214.711 248.282 214.647 248.328 214.599C248.376 214.553 248.439 214.527 248.506 214.527C248.572 214.527 248.636 214.553 248.684 214.599C249.642 215.444 250.786 216.051 252.024 216.37C253.261 216.689 254.556 216.712 255.803 216.436C255.867 216.425 255.933 216.439 255.987 216.477C256.04 216.514 256.077 216.571 256.088 216.635C256.099 216.7 256.085 216.766 256.047 216.819C256.01 216.872 255.953 216.909 255.889 216.92C255.276 217.058 254.651 217.13 254.023 217.134Z" fill="#263238"/>
<path d="M243.045 201.143C242.955 201.14 242.867 201.115 242.789 201.072C242.675 201.004 242.594 200.894 242.562 200.766C242.53 200.638 242.55 200.502 242.618 200.389C243.089 199.589 243.744 198.913 244.529 198.417C245.314 197.922 246.207 197.622 247.132 197.541C247.263 197.541 247.389 197.591 247.484 197.681C247.58 197.771 247.637 197.894 247.644 198.025C247.646 198.091 247.635 198.156 247.612 198.217C247.588 198.278 247.553 198.334 247.508 198.382C247.463 198.429 247.409 198.468 247.35 198.494C247.29 198.521 247.225 198.536 247.16 198.538C246.396 198.622 245.663 198.886 245.022 199.31C244.381 199.733 243.849 200.303 243.472 200.973C243.42 201.033 243.354 201.081 243.279 201.11C243.205 201.14 243.125 201.151 243.045 201.143Z" fill="#263238"/>
<path d="M264.305 197.128C264.225 197.149 264.142 197.149 264.063 197.128C263.399 196.736 262.652 196.506 261.883 196.457C261.113 196.407 260.343 196.54 259.634 196.843C259.508 196.907 259.361 196.918 259.226 196.874C259.091 196.83 258.98 196.735 258.915 196.608C258.851 196.482 258.84 196.335 258.884 196.2C258.928 196.065 259.024 195.953 259.15 195.889C260.003 195.503 260.936 195.328 261.871 195.38C262.806 195.432 263.714 195.709 264.518 196.188C264.575 196.219 264.625 196.261 264.665 196.312C264.705 196.363 264.735 196.421 264.752 196.483C264.77 196.546 264.774 196.611 264.766 196.675C264.757 196.739 264.736 196.801 264.703 196.857C264.668 196.934 264.612 197 264.541 197.047C264.471 197.095 264.389 197.123 264.305 197.128Z" fill="#263238"/>
<path d="M235.809 337.652L247.2 338.45L242.06 350.624C242.06 350.624 232.549 347.62 232.164 340.657L235.809 337.652Z" fill="#FFC3BD"/>
<path d="M251.574 345.342L246.063 353.657L242.076 350.625L247.245 338.45L251.574 345.342Z" fill="#FFC3BD"/>
<path d="M250.391 203.094L252.655 201.927C252.655 201.927 251.786 204.048 250.391 203.094Z" fill="#263238"/>
</g>
<defs>
<clipPath id="clip0_363_2058">
<rect width="711.951" height="711.951" fill="white" transform="translate(0 0.814453)"/>
</clipPath>
</defs>
</svg>
