<svg width="119" height="119" viewBox="0 0 119 119" fill="none" xmlns="http://www.w3.org/2000/svg">
<path d="M66.9779 28.9547C63.7975 26.7883 61.5043 24.4951 60.0523 22.8242C58.6004 24.4951 56.2957 26.7768 53.1037 28.9547C47.1461 33.0109 40.3242 35.2465 32.7764 35.6268V62.4648C32.7764 63.4443 32.9031 64.5852 33.1682 65.8527C33.1682 65.8527 36.4523 86.5258 60.0523 97.208C60.0523 97.208 77.1877 90.7203 84.7125 72.5479C86.4641 68.5492 87.2937 64.9654 87.2937 62.4648V35.6268C79.7459 35.2465 72.924 33.0109 66.9779 28.9547Z" fill="white"/>
<path d="M71.5293 58.4191L76.6572 47.4258H69.3629L64.235 58.4191H71.5293ZM48.8742 47.4258L43.7463 58.4191H51.0406L56.1686 47.4258H48.8742ZM66.4129 47.4258H59.1186L53.9906 58.4191H61.285L66.4129 47.4258ZM34.7119 47.4258V58.4191H40.7963L45.9242 47.4258H34.7119ZM85.3689 58.4191V47.4258H79.6072L74.4793 58.4191H85.3689Z" fill="#E6E6E6"/>
<path d="M60.0408 97.2098C50.7759 93.1996 44.0693 86.7119 39.6212 80.2127C37.2128 79.4061 34.8966 78.5418 32.6841 77.6545C33.6175 79.4061 34.6662 81.1576 35.83 82.84C39.9439 88.8207 47.3189 96.9678 59.0843 101.796C59.3955 101.923 59.7181 101.992 60.0408 101.992C60.3634 101.992 60.6861 101.934 60.9972 101.808C69.5591 98.2814 75.7933 93.0152 80.1376 88.0947C78.2132 88.0025 76.2312 87.8527 74.2146 87.6568C70.4003 91.3904 65.6988 94.7668 60.0408 97.2098ZM102.931 64.4717C102.078 63.7111 101.099 62.9391 99.9925 62.1785C97.7455 60.5998 95.0144 59.0211 91.8915 57.5V33.6234C91.8915 32.2176 90.7623 31.0768 89.3794 31.0768C81.9468 31.0422 75.2863 29.0486 69.5707 25.1537C65.1341 22.1346 62.7488 18.9426 62.115 18.0322C61.6425 17.3523 60.8705 16.9375 60.0408 16.9375C59.2226 16.9375 58.439 17.3408 57.9666 18.0207C57.3328 18.9311 54.9359 22.123 50.4994 25.1422C44.7722 29.0371 38.1001 31.0307 30.6791 31.0652C29.2962 31.0768 28.1669 32.2176 28.1669 33.6119V44.2826C26.738 44.3748 25.3898 44.5016 24.1222 44.6744C21.2759 45.0547 18.856 45.6309 16.8855 46.3914C13.5437 47.6936 11.5962 49.5143 11.0892 51.8074C10.6052 53.9969 11.5041 56.3477 13.7396 58.8137L13.7511 58.8252C13.7972 58.8713 13.8318 58.9174 13.8779 58.9635C15.9636 61.199 19.121 63.4807 23.2695 65.7508C23.546 65.9006 23.8341 66.0619 24.1222 66.2117C25.6664 67.0299 27.3257 67.8365 29.0658 68.6086C29.5728 70.5215 30.2873 72.515 31.1746 74.5316C33.2257 75.4189 35.3921 76.2717 37.6623 77.0898C36.4408 74.9695 35.4498 72.8838 34.6892 70.9248C41.0617 73.3563 48.2753 75.4996 55.8693 77.182C64.3966 79.0719 72.7396 80.2242 80.1953 80.5814C79.0314 82.2523 77.7292 83.9117 76.2658 85.525C78.2363 85.6863 80.1607 85.8016 82.016 85.8592C82.8456 84.8105 83.5831 83.7965 84.24 82.84C84.724 82.1371 85.1849 81.4227 85.6343 80.6967C87.2361 80.6852 88.7687 80.6391 90.2552 80.5353C94.1156 80.2818 97.3882 79.7402 100.004 78.9221C100.58 78.7377 101.122 78.5533 101.629 78.3459C102.631 77.9426 103.507 77.4816 104.245 76.9861C103.864 76.3408 103.38 75.7186 102.85 75.1309C102.09 75.6379 101.133 76.0873 100.004 76.4791C97.5035 77.3549 94.1386 77.9656 90.1054 78.2307C89.1029 78.2998 88.0658 78.3459 86.9941 78.3689C90.0824 72.7455 91.9031 66.9492 91.9031 62.4551V60.0697C95.1296 61.7061 97.8722 63.3885 100.004 65.0363C100.511 65.4281 100.972 65.8084 101.41 66.2002C103.288 67.8711 105.42 70.3256 104.936 72.5381C104.855 72.8838 104.717 73.2064 104.521 73.5291C105.109 74.1629 105.604 74.7967 105.996 75.4189C106.595 74.693 106.987 73.8979 107.183 73.0336C107.759 70.3832 106.33 67.5023 102.931 64.4717ZM24.3757 63.7111C24.2951 63.665 24.2029 63.6189 24.1222 63.5729C20.2158 61.418 17.2542 59.2285 15.422 57.2004C15.4105 57.2004 15.4105 57.2119 15.399 57.2119C14.673 56.4744 14.2005 55.6678 14.0277 55.3566C13.3824 54.2389 13.1289 53.2133 13.3363 52.2914C13.8894 49.7678 17.8304 47.8779 24.1222 46.9906C25.3783 46.8178 26.7265 46.6795 28.1669 46.5873V62.4666C28.1669 63.5037 28.2707 64.6215 28.455 65.7853C27.0261 65.1055 25.6548 64.4141 24.3757 63.7111ZM87.2937 62.4666C87.2937 66.1195 85.5076 72.1348 81.6703 78.3344C74.0187 78.0693 65.307 76.9055 56.3763 74.9234C48.1601 73.1027 40.4048 70.752 33.7212 68.067C33.0875 65.9006 32.7763 63.9762 32.7763 62.4666V35.6285C40.3242 35.2482 47.146 33.0127 53.1037 28.9564C56.2957 26.79 58.5888 24.4969 60.0523 22.826C61.5042 24.4969 63.7974 26.7785 66.9779 28.9564C72.924 33.0127 79.7458 35.2482 87.2937 35.6285V62.4666Z" fill="black"/>
<path d="M28.132 51.793C23.5111 52.0811 19.7199 52.7955 16.8852 53.9018C15.7789 54.3281 14.8225 54.8236 14.0273 55.3652C14.373 55.9645 14.8455 56.5752 15.4217 57.2205C17.8646 55.6072 22.2781 54.5125 28.132 54.1207V51.793Z" fill="white"/>
<path d="M14.0159 55.3555C14.1888 55.6666 14.6727 56.4732 15.3872 57.2107C15.3987 57.2107 15.3987 57.1992 15.4102 57.1992C14.8456 56.5654 14.3731 55.9547 14.0159 55.3555C14.0274 55.3555 14.0274 55.3555 14.0159 55.3555ZM105.984 75.4178C105.581 74.7955 105.086 74.1617 104.509 73.5279C104.037 73.0209 103.518 72.5023 102.931 71.9838C100.303 69.6445 96.4661 67.2361 91.753 64.943C91.7069 65.2541 91.4995 66.6369 91.3612 67.3283C95.6018 69.4371 99.0358 71.615 101.398 73.7123C101.882 74.1387 102.378 74.6227 102.839 75.1297C103.369 75.7059 103.853 76.3396 104.233 76.985C104.821 77.9875 105.143 79.0477 104.924 80.0502C104.256 83.0578 98.7132 85.1897 90.1052 85.7543C87.593 85.9156 84.8735 85.9502 82.0157 85.858C80.1604 85.8004 78.236 85.6852 76.2655 85.5238C70.0198 85.0053 63.2671 83.9682 56.3761 82.4355C49.727 80.9605 43.3891 79.1398 37.6735 77.0771C35.4034 76.259 33.237 75.4063 31.1858 74.5189C28.7429 73.4588 26.4612 72.3525 24.387 71.2232C16.8161 67.0863 12.6907 62.8111 13.3475 59.8035C13.4282 59.4578 13.5665 59.1236 13.7624 58.8125L13.7509 58.801C13.6472 58.6973 12.9903 58.0289 12.2759 56.9227C11.6766 57.6486 11.2849 58.4437 11.089 59.308C10.5934 61.5436 11.5384 63.952 13.8891 66.4641C15.9749 68.6996 19.1323 70.9813 23.2808 73.2514C26.0925 74.784 29.2614 76.2705 32.7069 77.6533C34.9079 78.5406 37.2241 79.3934 39.644 80.2115C44.7143 81.917 50.188 83.4381 55.8806 84.6941C62.1954 86.0885 68.4065 87.091 74.2259 87.6557C76.254 87.8516 78.236 88.0014 80.1489 88.0936C81.8428 88.1742 83.4792 88.2203 85.0694 88.2203C86.8671 88.2203 88.6071 88.1627 90.255 88.059C94.968 87.7479 98.7938 87.0104 101.629 85.8695C104.821 84.5789 106.687 82.7928 107.183 80.5572C107.54 78.9209 107.137 77.2039 105.984 75.4178Z" fill="white"/>
<path d="M13.7512 58.8128C13.7512 58.8128 13.7393 58.8128 13.7393 58.8008C13.7393 58.8008 13.7512 58.8008 13.7512 58.8128Z" fill="white"/>
</svg>
