<svg width="832" height="641" viewBox="0 0 832 641" fill="none" xmlns="http://www.w3.org/2000/svg">
<path d="M230.672 635.547C80.4923 609.265 100.583 531.576 53.3194 441.896C6.05558 352.215 0.467804 315.712 47.2796 238.839C94.0913 161.967 195.349 118.734 289.714 183.037C384.078 247.34 452.952 227.4 510.035 277.489C567.119 327.578 574.778 397.495 507.11 459.789C439.441 522.083 415.847 667.918 230.672 635.547Z" fill="#507FFD"/>
<path opacity="0.7" d="M230.672 635.547C80.4923 609.265 100.583 531.576 53.3194 441.896C6.05558 352.215 0.467804 315.712 47.2796 238.839C94.0913 161.967 195.349 118.734 289.714 183.037C384.078 247.34 452.952 227.4 510.035 277.489C567.119 327.578 574.778 397.495 507.11 459.789C439.441 522.083 415.847 667.918 230.672 635.547Z" fill="white"/>
<path d="M251.419 479.8H221.685L205.587 474.702L200.564 473.107L199.095 488.264L23.0234 488.59C23.0234 488.59 25.7106 481.809 30.0929 471.864C39.5482 450.405 56.8766 414.166 72.0326 399.361C84.3383 387.345 115.077 387.005 115.077 387.005C118.216 384.925 121.897 383.815 125.663 383.816C131.313 384.092 174.032 388.726 176.681 390.094C178.526 391.164 180.108 392.631 181.314 394.389C181.314 394.389 196.282 387.771 210.986 393.736C225.69 399.7 251.419 479.8 251.419 479.8Z" fill="#BFBFBF"/>
<mask id="mask0_273_1054" style="mask-type:luminance" maskUnits="userSpaceOnUse" x="23" y="383" width="229" height="106">
<path d="M251.419 479.8H221.685L205.587 474.702L200.564 473.108L199.095 488.264L23.0234 488.59C23.0234 488.59 25.7106 481.81 30.0929 471.865C39.5482 450.405 56.8766 414.166 72.0326 399.362C84.3383 387.345 115.077 387.006 115.077 387.006C118.216 384.925 121.897 383.816 125.663 383.816C131.313 384.093 174.032 388.726 176.681 390.095C178.526 391.164 180.108 392.631 181.314 394.389C181.314 394.389 196.282 387.772 210.986 393.736C225.69 399.701 251.419 479.8 251.419 479.8Z" fill="white"/>
</mask>
<g mask="url(#mask0_273_1054)">
<path opacity="0.2" d="M205.587 474.702L200.564 473.107L199.095 488.263L23.0234 488.59C23.0234 488.59 25.7106 481.809 30.0929 471.864C36.8861 471.701 44.5458 471.349 44.5458 471.349L48.4886 458.453C48.4886 458.453 54.6791 451.911 62.4141 455.766C62.1561 454.791 62.2099 453.759 62.568 452.815C62.926 451.872 63.5704 451.064 64.4107 450.505C67.3992 448.521 79.6546 454.887 79.6546 454.887C79.6546 454.887 85.5563 443.586 87.5654 436.19C89.5745 428.794 90.9055 446.65 90.9055 446.65C90.9055 446.65 95.9282 438.438 95.9282 436.19C95.9282 433.942 105.195 458.453 105.195 458.453C105.195 458.453 117.451 459.922 120.766 461.178C124.081 462.434 157.08 463.69 167.703 461.178C178.326 458.667 160.169 473.735 160.169 473.735C160.169 473.735 178.828 480.013 189.376 475.895C199.924 471.776 204.645 467.369 204.645 467.369C204.645 467.369 205.034 470.42 205.587 474.702Z" fill="black" fill-opacity="0.7"/>
</g>
<path d="M251.419 479.8H221.685L205.587 474.702L200.564 473.107L199.095 488.264L23.0234 488.59C23.0234 488.59 25.7106 481.809 30.0929 471.864C39.5482 450.405 56.8766 414.166 72.0326 399.361C84.3383 387.345 115.077 387.005 115.077 387.005C118.216 384.925 121.897 383.815 125.663 383.816C131.313 384.092 174.032 388.726 176.681 390.094C178.526 391.164 180.108 392.631 181.314 394.389C181.314 394.389 196.282 387.771 210.986 393.736C225.69 399.7 251.419 479.8 251.419 479.8Z" stroke="#263238" stroke-width="1.46312" stroke-linecap="round" stroke-linejoin="round"/>
<path d="M195.893 441.075C193.278 444.762 190.295 448.174 186.99 451.259" stroke="#263238" stroke-width="1.46312" stroke-linecap="round" stroke-linejoin="round"/>
<path d="M178.288 458.579C165.496 468.029 150.46 473.979 134.666 475.845" stroke="#263238" stroke-width="1.46312" stroke-linecap="round" stroke-linejoin="round"/>
<path d="M233.275 454.297C233.275 454.297 237.846 451.459 241.852 452.389C245.857 453.318 249.172 457.273 249.172 457.273C249.172 457.273 282.423 454.523 289.969 454.762C297.516 455.001 314.405 459.948 314.405 459.948C314.405 459.948 322.592 458.29 323.471 458.629C324.35 458.968 321.7 486.832 321.7 486.832H213.712C208.413 486.832 204.482 479.16 200.502 473.133C207.359 449.149 210.867 424.331 210.924 399.386" fill="#BFBFBF"/>
<mask id="mask1_273_1054" style="mask-type:luminance" maskUnits="userSpaceOnUse" x="200" y="399" width="124" height="88">
<path d="M233.279 454.298C233.279 454.298 237.85 451.46 241.855 452.389C245.861 453.318 249.176 457.274 249.176 457.274C249.176 457.274 282.426 454.524 289.973 454.762C297.52 455.001 314.409 459.948 314.409 459.948C314.409 459.948 322.596 458.291 323.475 458.63C324.354 458.969 321.704 486.832 321.704 486.832H213.716C208.417 486.832 204.486 479.16 200.506 473.133C207.363 449.149 210.871 424.332 210.928 399.387" fill="white"/>
</mask>
<g mask="url(#mask1_273_1054)">
<path opacity="0.2" d="M262.911 486.807H213.739C208.44 486.807 204.51 479.135 200.529 473.108C204.466 459.577 207.268 445.742 208.905 431.746C208.905 431.746 214.128 439.493 210.951 448.471L214.128 439.493C214.128 439.493 217.18 449.112 214.128 457.261C211.077 465.41 208.905 467.746 208.905 467.746C208.905 467.746 212.672 472.668 216.665 471.35C220.658 470.031 225.002 478.017 225.002 478.017C225.002 478.017 234.596 478.382 236.592 478.017C237.509 477.854 249.928 482.136 262.911 486.807Z" fill="black" fill-opacity="0.7"/>
</g>
<path d="M233.275 454.297C233.275 454.297 237.846 451.459 241.852 452.389C245.857 453.318 249.172 457.273 249.172 457.273C249.172 457.273 282.423 454.523 289.969 454.762C297.516 455.001 314.405 459.948 314.405 459.948C314.405 459.948 322.592 458.29 323.471 458.629C324.35 458.968 321.7 486.832 321.7 486.832H213.712C208.413 486.832 204.482 479.16 200.502 473.133C207.359 449.149 210.867 424.331 210.924 399.386" stroke="#263238" stroke-width="1.46312" stroke-linecap="round" stroke-linejoin="round"/>
<path d="M171.547 367.53V394.351C168.147 396.667 164.626 398.8 160.999 400.742C153.679 404.623 144.286 408.465 138.699 406.28C128.565 402.3 121.998 387.005 121.998 387.005C132.935 378.668 134.253 367.53 135.911 362.231L171.547 367.53Z" fill="white" stroke="#263238" stroke-width="1.46312" stroke-linecap="round" stroke-linejoin="round"/>
<path d="M116.697 389.052C116.697 389.052 125.977 409.256 137.24 412.91C148.504 416.564 167.577 402.3 167.577 402.3" stroke="#263238" stroke-width="1.46312" stroke-linecap="round" stroke-linejoin="round"/>
<path d="M66.0293 413.5C66.0293 413.5 83.6088 427.187 86.5597 431.796C89.5105 436.404 86.5597 479.8 86.5597 479.8" stroke="#263238" stroke-width="1.46312" stroke-linecap="round" stroke-linejoin="round"/>
<path d="M42.0941 457.663C52.4535 450.982 59.7364 458.29 66.0274 459.609C72.3183 460.927 86.2313 453.82 96.666 459.609C107.101 465.398 107.101 463.376 107.101 463.376C107.101 463.376 118.025 471.714 112.387 488.402L22.9826 488.565C22.9826 488.565 17.0182 475.82 36.6193 457.638" fill="#BFBFBF"/>
<path d="M42.0941 457.663C52.4535 450.982 59.7364 458.29 66.0274 459.609C72.3183 460.927 86.2313 453.82 96.666 459.609C107.101 465.398 107.101 463.376 107.101 463.376C107.101 463.376 118.025 471.714 112.387 488.402L22.9826 488.565C22.9826 488.565 17.0182 475.82 36.6193 457.638" stroke="#263238" stroke-width="1.46312" stroke-linecap="round" stroke-linejoin="round"/>
<path d="M129.705 431.833L153.299 474.991L154.04 479.838L150.273 476.485L125.938 433.641C126.295 432.982 126.852 432.452 127.528 432.128C128.205 431.803 128.966 431.7 129.705 431.833Z" fill="#507FFD" stroke="#263238" stroke-width="1.46312" stroke-linecap="round" stroke-linejoin="round"/>
<path d="M107.306 465.636C109.088 465.119 110.919 464.787 112.769 464.644C114.765 464.644 127.046 455.566 131.215 454.888C135.383 454.21 142.88 460.425 146.697 461.417C150.514 462.409 150.276 467.382 152.511 469.366C154.746 471.35 151.519 473.585 148.744 471.35C148.942 472.125 148.954 472.936 148.78 473.718C148.605 474.499 148.249 475.228 147.739 475.845C147.739 475.845 148.493 478.557 147.739 479.8H103.539C103.539 479.8 102.874 471.35 107.306 465.636Z" fill="white" stroke="#263238" stroke-width="1.46312" stroke-linecap="round" stroke-linejoin="round"/>
<path d="M148.83 471.35L144.85 467.419L134.666 464.155" stroke="#263238" stroke-width="1.46312" stroke-linecap="round" stroke-linejoin="round"/>
<path d="M147.837 475.845L141.747 473.108L133.422 471.538" stroke="#263238" stroke-width="1.46312" stroke-linecap="round" stroke-linejoin="round"/>
<path d="M133.422 478.017L141.747 478.394L147.837 479.8" stroke="#263238" stroke-width="1.46312" stroke-linecap="round" stroke-linejoin="round"/>
<path d="M131.25 454.887C127.483 458.19 131.25 461.668 129.455 464.154C127.659 466.641 125.688 467.381 127.22 471.349" stroke="#263238" stroke-width="1.46312" stroke-linecap="round" stroke-linejoin="round"/>
<path d="M185.004 481.897H386.138C386.138 483.672 385.433 485.374 384.178 486.63C382.923 487.885 381.221 488.59 379.446 488.59H201.139C200.44 488.589 199.745 488.479 199.08 488.263L184.752 483.643C184.548 483.581 184.372 483.448 184.257 483.268C184.142 483.088 184.096 482.873 184.126 482.662C184.157 482.45 184.262 482.257 184.423 482.117C184.584 481.976 184.79 481.898 185.004 481.897Z" fill="#507FFD"/>
<mask id="mask2_273_1054" style="mask-type:luminance" maskUnits="userSpaceOnUse" x="184" y="481" width="203" height="8">
<path d="M185.005 481.897H386.14C386.14 483.672 385.435 485.374 384.18 486.63C382.925 487.885 381.223 488.59 379.448 488.59H201.141C200.442 488.589 199.747 488.479 199.082 488.263L184.754 483.643C184.55 483.581 184.374 483.448 184.259 483.268C184.144 483.088 184.098 482.873 184.128 482.662C184.159 482.45 184.264 482.257 184.425 482.117C184.586 481.976 184.792 481.898 185.005 481.897Z" fill="white"/>
</mask>
<g mask="url(#mask2_273_1054)">
<path opacity="0.2" d="M386.141 481.897C386.139 483.672 385.435 485.374 384.182 486.631L383.981 486.807C382.75 487.953 381.13 488.59 379.448 488.59H201.142C200.442 488.589 199.748 488.479 199.082 488.263L184.755 483.643C184.548 483.581 184.371 483.446 184.256 483.263C184.141 483.08 184.096 482.862 184.13 482.649C184.164 482.436 184.274 482.242 184.44 482.104C184.605 481.966 184.816 481.892 185.031 481.897H386.141Z" fill="black" fill-opacity="0.7"/>
<path opacity="0.2" d="M386.14 481.897C386.138 483.672 385.434 485.374 384.181 486.631L383.98 486.807H268.897C267.594 486.807 266.343 486.29 265.421 485.37C264.498 484.449 263.978 483.2 263.975 481.897H386.14Z" fill="black" fill-opacity="0.7"/>
</g>
<path d="M185.004 481.897H386.138C386.138 483.672 385.433 485.374 384.178 486.63C382.923 487.885 381.221 488.59 379.446 488.59H201.139C200.44 488.589 199.745 488.479 199.08 488.263L184.752 483.643C184.548 483.581 184.372 483.448 184.257 483.268C184.142 483.088 184.096 482.873 184.126 482.662C184.157 482.45 184.262 482.257 184.423 482.117C184.584 481.976 184.79 481.898 185.004 481.897Z" stroke="#263238" stroke-width="1.46312" stroke-linecap="round" stroke-linejoin="round"/>
<path d="M263.977 481.897C263.98 483.2 264.5 484.449 265.423 485.37C266.345 486.29 267.596 486.807 268.899 486.807H287.998" stroke="#263238" stroke-width="1.46312" stroke-linecap="round" stroke-linejoin="round"/>
<path d="M422.141 399.336V399.499L398.735 480.93C398.387 481.976 397.728 482.891 396.846 483.552C395.964 484.214 394.902 484.592 393.801 484.635H271.874C271.412 484.671 270.949 484.591 270.526 484.402C270.103 484.213 269.735 483.92 269.455 483.551C269.175 483.183 268.992 482.749 268.923 482.291C268.854 481.833 268.902 481.365 269.061 480.93L292.442 399.499C292.789 398.453 293.448 397.537 294.33 396.875C295.212 396.213 296.275 395.836 297.377 395.795H419.303C419.751 395.755 420.201 395.827 420.614 396.003C421.027 396.179 421.39 396.455 421.671 396.805C421.952 397.156 422.142 397.57 422.224 398.012C422.306 398.453 422.278 398.908 422.141 399.336Z" fill="#507FFD"/>
<mask id="mask3_273_1054" style="mask-type:luminance" maskUnits="userSpaceOnUse" x="268" y="395" width="155" height="90">
<path d="M422.141 399.336V399.499L398.735 480.93C398.387 481.976 397.728 482.89 396.846 483.552C395.964 484.214 394.902 484.591 393.801 484.634H271.874C271.412 484.671 270.949 484.591 270.526 484.402C270.103 484.213 269.735 483.92 269.455 483.551C269.175 483.182 268.992 482.749 268.923 482.291C268.854 481.833 268.902 481.365 269.061 480.93L292.442 399.499C292.789 398.453 293.448 397.537 294.33 396.875C295.212 396.213 296.275 395.836 297.377 395.795H419.303C419.751 395.755 420.201 395.827 420.614 396.003C421.027 396.179 421.39 396.455 421.671 396.805C421.952 397.156 422.142 397.57 422.224 398.012C422.306 398.453 422.278 398.908 422.141 399.336Z" fill="white"/>
</mask>
<g mask="url(#mask3_273_1054)">
<path opacity="0.4" d="M422.139 399.336V399.499L398.734 480.93C398.385 481.976 397.726 482.891 396.844 483.552C395.963 484.214 394.9 484.592 393.799 484.635H272.676V484.471L296.044 403.041C296.393 401.995 297.052 401.08 297.933 400.418C298.815 399.757 299.877 399.379 300.979 399.336H422.139Z" fill="white"/>
</g>
<path d="M422.141 399.336V399.499L398.735 480.93C398.387 481.976 397.728 482.891 396.846 483.552C395.964 484.214 394.902 484.592 393.801 484.635H271.874C271.412 484.671 270.949 484.591 270.526 484.402C270.103 484.213 269.735 483.92 269.455 483.551C269.175 483.182 268.992 482.749 268.923 482.291C268.854 481.833 268.902 481.365 269.061 480.93L292.442 399.499C292.789 398.453 293.448 397.537 294.33 396.875C295.212 396.213 296.275 395.836 297.377 395.795H419.303C419.751 395.755 420.201 395.827 420.614 396.003C421.027 396.179 421.39 396.455 421.671 396.805C421.952 397.156 422.142 397.57 422.224 398.012C422.306 398.453 422.278 398.908 422.141 399.336Z" stroke="#263238" stroke-width="1.46312" stroke-linecap="round" stroke-linejoin="round"/>
<path d="M354.371 441.715C353.333 443.853 351.732 445.668 349.742 446.966C347.751 448.265 345.445 448.997 343.07 449.086C337.947 449.086 334.921 445.118 336.327 440.221C337.168 437.715 338.751 435.524 340.865 433.939C342.98 432.353 345.527 431.448 348.168 431.344H348.394C348.157 431.828 347.964 432.332 347.817 432.85C346.372 437.71 349.323 441.64 354.371 441.715Z" fill="white" stroke="#263238" stroke-width="1.46312" stroke-linecap="round" stroke-linejoin="round"/>
<path d="M273.307 480.641L296.122 401.157C296.326 400.548 296.71 400.015 297.223 399.629C297.737 399.243 298.356 399.023 298.998 398.997H417.183" stroke="#263238" stroke-width="1.46312" stroke-linecap="round" stroke-linejoin="round"/>
<path d="M216.662 488.59H48.4004L50.4346 484.346C50.4346 484.346 66.3315 485.828 78.926 481.897C84.4887 480.165 93.0524 479.386 101.641 479.487C107.053 479.562 120.225 479.612 128.4 479.574C131.313 479.574 133.598 479.574 134.678 479.499C135.093 479.499 135.507 479.499 135.934 479.499C138.265 479.471 140.593 479.69 142.878 480.152C145.083 479.903 147.301 479.794 149.52 479.826C153.4 479.826 170.088 479.763 174.634 479.826C180.624 479.901 187.542 481.081 194.11 481.985L194.285 481.923V482.01C202.221 483.115 209.655 483.869 214.376 481.923L216.662 488.59Z" fill="white"/>
<mask id="mask4_273_1054" style="mask-type:luminance" maskUnits="userSpaceOnUse" x="48" y="479" width="169" height="10">
<path d="M216.664 488.59H48.4023L50.4365 484.346C50.4365 484.346 66.3335 485.827 78.9279 481.897C84.4906 480.164 93.0543 479.386 101.643 479.486C107.055 479.562 120.227 479.612 128.402 479.574C131.315 479.574 133.6 479.574 134.68 479.499C135.095 479.499 135.509 479.499 135.936 479.499C138.267 479.47 140.595 479.689 142.88 480.152C145.085 479.902 147.303 479.793 149.522 479.825C153.402 479.825 170.09 479.762 174.636 479.825C180.625 479.901 187.544 481.081 194.111 481.985L194.287 481.922V482.01C202.223 483.115 209.657 483.869 214.378 481.922L216.664 488.59Z" fill="white"/>
</mask>
<g mask="url(#mask4_273_1054)">
<path opacity="0.4" d="M216.66 488.59H86.2324L88.8819 484.032C88.8819 484.032 96.0016 488.188 102.958 485.287C109.915 482.387 116.921 480.805 128.398 479.549C130.901 479.281 133.423 479.248 135.932 479.448C140.928 479.832 145.84 480.949 150.511 482.763C150.511 482.763 157.354 479.775 174.632 479.775C180.622 479.85 187.541 481.031 194.108 481.935L194.284 481.872V481.96C202.22 483.065 209.653 483.818 214.375 481.872L216.66 488.59Z" fill="#507FFD"/>
<path d="M88.8821 484.031L50.4834 484.345L48.4492 488.59H86.2326L88.8821 484.031Z" fill="#507FFD"/>
<path d="M87.3125 486.719L88.8821 484.031C92.2771 485.509 95.9406 486.27 99.6433 486.266C105.269 486.103 114.159 479.134 131.249 479.473" stroke="#263238" stroke-width="1.46312" stroke-linecap="round" stroke-linejoin="round"/>
<path d="M142.838 480.126C145.99 481.282 150.472 482.789 150.472 482.789C150.472 482.789 156.274 479.448 169.019 479.8" stroke="#263238" stroke-width="1.46312" stroke-linecap="round" stroke-linejoin="round"/>
<path d="M88.8836 484.031C88.8836 484.031 69.0188 484.383 61.0703 484.559" stroke="#263238" stroke-width="1.46312" stroke-linecap="round" stroke-linejoin="round"/>
<path d="M147.824 488.59C147.932 487.771 148.295 487.007 148.86 486.406C149.426 485.804 150.166 485.396 150.976 485.237C153.789 484.772 155.609 488.251 155.609 488.251" stroke="#263238" stroke-width="1.46312" stroke-linecap="round" stroke-linejoin="round"/>
<path d="M150.473 482.788L150.975 485.237" stroke="#263238" stroke-width="1.46312" stroke-linecap="round" stroke-linejoin="round"/>
<path d="M153.299 485.237C153.299 485.237 162.239 481.156 170.878 481.897" stroke="#263238" stroke-width="1.46312" stroke-linecap="round" stroke-linejoin="round"/>
<path d="M149.619 485.727C148.828 485.111 135.405 480.968 121.668 484.032" stroke="#263238" stroke-width="1.46312" stroke-linecap="round" stroke-linejoin="round"/>
<path d="M147.825 487.422C147.825 487.422 136.523 485.275 126.691 486.769" stroke="#263238" stroke-width="1.46312" stroke-linecap="round" stroke-linejoin="round"/>
<path d="M154.553 486.794C162.054 484.702 169.905 484.172 177.62 485.237C185.217 486.367 192.893 486.879 200.573 486.769" stroke="#263238" stroke-width="1.46312" stroke-linecap="round" stroke-linejoin="round"/>
</g>
<path d="M216.662 488.59H48.4004L50.4346 484.346C50.4346 484.346 66.3315 485.828 78.926 481.897C84.4886 480.165 93.0524 479.386 101.641 479.487C107.053 479.562 120.225 479.612 128.4 479.574C131.313 479.574 133.598 479.574 134.678 479.499C135.093 479.499 135.507 479.499 135.934 479.499C138.265 479.471 140.593 479.69 142.878 480.152C145.083 479.903 147.301 479.794 149.52 479.826C153.4 479.826 170.088 479.763 174.634 479.826C180.624 479.901 187.542 481.081 194.11 481.985L194.285 481.923V482.01C202.221 483.115 209.655 483.869 214.376 481.923L216.662 488.59Z" stroke="#263238" stroke-width="1.46312" stroke-linecap="round" stroke-linejoin="round"/>
<path d="M171.546 389.894V394.351C168.146 396.667 164.625 398.801 160.998 400.743C152.949 393.347 151.807 379.296 151.807 379.296L171.546 389.894Z" fill="#263238"/>
<path d="M137.241 364.215C127.773 350.214 129.707 324.033 141.874 309.743C159.755 288.874 206.416 304.118 206.378 333.601C206.342 337.699 205.989 341.788 205.324 345.832C204.708 349.724 201.331 353.654 200.301 357.534C199.271 361.415 199.686 367.58 199.271 371.347C198.342 379.923 186.476 396.938 183.261 398.784C178.766 401.295 154.469 394.477 149.17 378.894" fill="white"/>
<path d="M137.241 364.215C127.773 350.214 129.707 324.033 141.874 309.743C159.755 288.874 206.416 304.118 206.378 333.601C206.342 337.699 205.989 341.788 205.324 345.832C204.708 349.724 201.331 353.654 200.301 357.534C199.271 361.415 199.686 367.58 199.271 371.347C198.342 379.923 186.476 396.938 183.261 398.784C178.766 401.295 154.469 394.477 149.17 378.894" stroke="#263238" stroke-width="1.46312" stroke-linecap="round" stroke-linejoin="round"/>
<path d="M170.354 346.912C170.354 346.912 176.971 344.501 182.91 346.912" stroke="#263238" stroke-width="1.46312" stroke-linecap="round" stroke-linejoin="round"/>
<path d="M196.457 346.912C196.457 346.912 201.279 344.501 204.506 346.912" stroke="#263238" stroke-width="1.46312" stroke-linecap="round" stroke-linejoin="round"/>
<path d="M176.544 358.162C176.192 359.858 175.037 361.063 174.033 360.85C173.028 360.636 172.363 359.067 172.714 357.359C173.066 355.651 174.221 354.458 175.288 354.684C176.356 354.91 176.896 356.492 176.544 358.162Z" fill="#263238"/>
<path d="M197.839 358.162C197.487 359.858 196.332 361.063 195.328 360.85C194.323 360.636 193.657 359.067 194.009 357.359C194.361 355.651 195.503 354.458 196.583 354.684C197.663 354.91 198.19 356.492 197.839 358.162Z" fill="#263238"/>
<path d="M194.361 349.486C194.361 349.486 191.21 354.948 190.883 359.531C190.557 364.115 195.906 373.608 194.361 376.583C192.817 379.559 186.25 379.409 184.09 377.588" fill="white"/>
<path d="M194.361 349.486C194.361 349.486 191.21 354.948 190.883 359.531C190.557 364.115 195.906 373.608 194.361 376.583C192.817 379.559 186.25 379.409 184.09 377.588" stroke="#263238" stroke-width="1.46312" stroke-linecap="round" stroke-linejoin="round"/>
<path d="M185.256 383.59C180.917 384.204 176.492 383.572 172.498 381.769" stroke="#263238" stroke-width="1.46312" stroke-linecap="round" stroke-linejoin="round"/>
<path d="M146.735 351.306C146.735 351.306 149.824 348.318 153.465 349.486C157.107 350.654 157.772 360.573 157.772 360.573L160.422 357.748C160.422 357.748 159.43 352.135 163.398 344.262C167.366 336.389 165.382 327.122 165.382 327.122C165.382 327.122 172.225 329.433 174.599 334.731C174.599 334.731 177.185 329.106 174.599 324.799C174.599 324.799 185.259 327.449 187.909 335.397C187.909 335.397 190.006 329.432 189.29 326.457C189.29 326.457 196.51 328.767 199.16 335.723C199.16 335.723 201.571 330.424 200.528 326.118C200.528 326.118 203.442 328.629 204.559 336.063C206.734 331.53 207.373 326.412 206.38 321.484C206.38 321.484 210.147 325.791 210.75 329.433C210.75 329.433 213.813 318.835 195.895 304.595C177.976 290.356 147.3 293.583 142.528 304.595C142.528 304.595 144.111 296.483 147.3 293.583C147.3 293.583 138.51 297.501 138.699 305.587C138.699 305.587 130.939 304.595 126.971 309.568C129.403 309.384 131.848 309.493 134.254 309.894C134.254 309.894 123.656 316.173 124.321 331.09C124.987 346.007 134.254 367.505 134.254 367.505L141.511 365.383C141.511 365.383 142.667 355.237 146.735 351.306Z" fill="#263238"/>
<path d="M154.783 354.948C154.783 354.948 149.157 345.016 146.182 344.35C143.206 343.685 137.568 347.665 138.886 352.964C140.204 358.263 141.209 367.203 142.867 368.195C144.524 369.187 147.173 375.152 149.823 373.494C150.172 373.315 150.473 373.056 150.704 372.739C150.934 372.422 151.088 372.055 151.151 371.668C151.214 371.282 151.186 370.885 151.069 370.511C150.952 370.137 150.749 369.795 150.476 369.514" fill="white"/>
<path d="M154.783 354.948C154.783 354.948 149.157 345.016 146.182 344.35C143.206 343.685 137.568 347.665 138.886 352.964C140.204 358.263 141.209 367.203 142.867 368.195C144.524 369.187 147.173 375.152 149.823 373.494C150.172 373.315 150.473 373.056 150.704 372.739C150.934 372.422 151.088 372.055 151.151 371.668C151.214 371.282 151.186 370.885 151.069 370.511C150.952 370.137 150.749 369.795 150.476 369.514" stroke="#263238" stroke-width="1.46312" stroke-linecap="round" stroke-linejoin="round"/>
<path d="M217.701 431.745C217.131 434.193 216.402 436.601 215.516 438.953" stroke="#263238" stroke-width="1.46312" stroke-linecap="round" stroke-linejoin="round"/>
<path d="M213.499 443.75C211.497 448.313 208.563 452.406 204.885 455.767" stroke="#263238" stroke-width="1.46312" stroke-linecap="round" stroke-linejoin="round"/>
<path d="M249.196 457.273C247.476 457.047 243.972 459.22 240.758 462.02" stroke="#263238" stroke-width="1.46312" stroke-linecap="round" stroke-linejoin="round"/>
<path d="M238.397 464.242C235.886 466.841 233.939 469.591 233.939 471.349" stroke="#263238" stroke-width="1.46312" stroke-linecap="round" stroke-linejoin="round"/>
<path d="M55.8203 450.505C55.8203 450.505 62.9651 452.489 63.0279 458.617" stroke="#263238" stroke-width="1.46312" stroke-linecap="round" stroke-linejoin="round"/>
<path d="M82.5918 417.054C83.7778 418.381 84.8569 419.8 85.8189 421.298" stroke="#263238" stroke-width="1.46312" stroke-linecap="round" stroke-linejoin="round"/>
<path d="M88.644 426.472C90.0494 429.523 90.8062 432.832 90.8666 436.191C90.8666 446.525 87.8906 452.514 87.8906 452.514" stroke="#263238" stroke-width="1.46312" stroke-linecap="round" stroke-linejoin="round"/>
<path d="M125.979 406.921C127.873 408.682 129.901 410.294 132.043 411.742" stroke="#263238" stroke-width="1.46312" stroke-linecap="round" stroke-linejoin="round"/>
<path d="M138.346 415.51C144.762 418.749 153.062 421.185 161.676 419.038" stroke="#263238" stroke-width="1.46312" stroke-linecap="round" stroke-linejoin="round"/>
<g opacity="0.2">
<path d="M151.805 305.123C154.048 304.78 156.317 304.633 158.585 304.683" stroke="white" stroke-width="1.46312" stroke-linecap="round" stroke-linejoin="round"/>
<path d="M161.889 304.859C168.029 305.437 175.588 307.584 180.284 314.063" stroke="white" stroke-width="1.46312" stroke-linecap="round" stroke-linejoin="round"/>
<path d="M166.711 300.087C166.711 300.087 178.226 300.213 186.475 305.976" stroke="white" stroke-width="1.46312" stroke-linecap="round" stroke-linejoin="round"/>
<path d="M189.711 308.777C191.188 310.32 192.371 312.12 193.202 314.088" stroke="white" stroke-width="1.46312" stroke-linecap="round" stroke-linejoin="round"/>
<path d="M148.828 310.032C148.828 310.032 160.129 314.013 164.06 321.132" stroke="white" stroke-width="1.46312" stroke-linecap="round" stroke-linejoin="round"/>
<path d="M143.354 314.063C145.802 317.456 147.564 321.295 148.539 325.364" stroke="white" stroke-width="1.46312" stroke-linecap="round" stroke-linejoin="round"/>
<path d="M149.242 330.952C149.258 332.452 149.119 333.95 148.828 335.422" stroke="white" stroke-width="1.46312" stroke-linecap="round" stroke-linejoin="round"/>
<path d="M135.743 318.697C135.161 320.174 134.679 321.688 134.299 323.23" stroke="white" stroke-width="1.46312" stroke-linecap="round" stroke-linejoin="round"/>
<path d="M133.409 327.612C132.749 331.527 132.698 335.521 133.258 339.453" stroke="white" stroke-width="1.46312" stroke-linecap="round" stroke-linejoin="round"/>
</g>
<path d="M283.941 510.916H442.408V488.59H0.960938V510.916H90.2147" fill="white"/>
<path d="M283.941 510.916H442.408V488.59H0.960938V510.916H90.2147" stroke="#263238" stroke-width="1.46312" stroke-linecap="round" stroke-linejoin="round"/>
<path d="M272.564 510.916H250.062" stroke="#263238" stroke-width="1.46312" stroke-linecap="round" stroke-linejoin="round"/>
<path d="M224.383 301.148V82.0947H243.017" stroke="#263238" stroke-width="1.46312" stroke-linecap="round" stroke-linejoin="round"/>
<path d="M224.396 336.96V328.974" stroke="#263238" stroke-width="1.46312" stroke-linecap="round" stroke-linejoin="round"/>
<path d="M290.921 82.0947H483.116V364.999H224.383" stroke="#263238" stroke-width="1.46312" stroke-linecap="round" stroke-linejoin="round"/>
<path d="M473.383 91.8137H234.113V355.293H473.383V91.8137Z" stroke="#263238" stroke-width="1.46312" stroke-linecap="round" stroke-linejoin="round"/>
<path d="M462.258 110.297V212.773H245.238V203.431" stroke="#263238" stroke-width="1.46312" stroke-linecap="round" stroke-linejoin="round"/>
<path d="M245.238 181.507V101.985H462.258" stroke="#263238" stroke-width="1.46312" stroke-linecap="round" stroke-linejoin="round"/>
<path d="M245.252 196.236V187.145" stroke="#263238" stroke-width="1.46312" stroke-linecap="round" stroke-linejoin="round"/>
<path d="M425.617 223.547H473.383" stroke="#263238" stroke-width="1.46312" stroke-linecap="round" stroke-linejoin="round"/>
<path d="M408.629 223.547H415.384" stroke="#263238" stroke-width="1.46312" stroke-linecap="round" stroke-linejoin="round"/>
<path d="M234.113 223.547H400.554" stroke="#263238" stroke-width="1.46312" stroke-linecap="round" stroke-linejoin="round"/>
<path d="M341.725 212.773V207.851H361.728V210.651H353.754V212.773" stroke="#263238" stroke-width="1.46312" stroke-linecap="round" stroke-linejoin="round"/>
<path d="M234.527 311.859C234.527 311.859 237.842 314.37 240.178 329.564C240.178 329.564 244.196 305.292 249.068 304.915C253.94 304.538 252.911 320.712 252.911 320.712C252.911 320.712 253.714 312.738 257.531 313.102C261.349 313.466 257.531 329.564 257.531 329.564C257.531 329.564 262.115 317.007 266.447 317.233C270.779 317.459 263.571 339.974 263.571 339.974C263.571 339.974 274.697 331.912 279.204 335.855C283.712 339.798 276.693 349.743 276.693 349.743C276.693 349.743 292.653 346.277 295.126 355.632" stroke="#263238" stroke-width="1.46312" stroke-linecap="round" stroke-linejoin="round"/>
<path d="M295.164 346.566C295.164 346.566 302.121 342.008 307.583 344.13C307.583 344.13 304.104 338.831 307.583 335.591C311.061 332.352 315.531 344.13 315.531 344.13C315.531 344.13 316.033 324.403 322.99 325.395C329.946 326.387 322.99 344.13 322.99 344.13C322.99 344.13 335.409 333.13 338.385 336.96C341.361 340.79 336.401 346.566 336.401 346.566C336.401 346.566 343.847 344.18 349.309 349.743C349.309 349.743 357.634 341.242 366.889 340.024C366.889 340.024 360.736 322.168 363.724 318.564C366.713 314.961 372.112 334.147 372.112 334.147C372.112 334.147 374.485 321.666 382.258 320.712C382.258 320.712 375.779 317.183 377.7 311.859C379.621 306.535 388.562 313.115 388.562 313.115C388.562 313.115 384.882 303.735 390.696 301.161C396.51 298.587 398.933 309.009 398.933 309.009C398.933 309.009 400.553 298.084 407.384 298.687C414.215 299.29 412.005 311.872 412.005 311.872C412.005 311.872 418.447 301.826 421.9 302.893C428.794 304.928 426.697 320.724 426.697 320.724C426.697 320.724 436.328 314.031 438.801 317.108C441.476 320.435 428.756 328.987 428.756 328.987C428.756 328.987 438.312 330.041 444.251 335.604" stroke="#263238" stroke-width="1.46312" stroke-linecap="round" stroke-linejoin="round"/>
<path d="M473.383 315.463C473.383 315.463 472.291 305.417 462.258 304.915C452.225 304.413 465.02 326.889 465.02 326.889C465.02 326.889 456.745 320.046 453.782 322.156C450.818 324.265 462.258 335.855 462.258 335.855C462.258 335.855 456.77 330.832 450.957 332.352C445.143 333.871 454.259 350.057 454.259 350.057C445.666 348.322 436.743 349.364 428.781 353.033" stroke="#263238" stroke-width="1.46312" stroke-linecap="round" stroke-linejoin="round"/>
<path d="M35.7129 328.899V203.733H176.65" stroke="#263238" stroke-width="1.46312" stroke-linecap="round" stroke-linejoin="round"/>
<path d="M171.526 216.679H47.0508V333.269" stroke="#263238" stroke-width="1.46312" stroke-linecap="round" stroke-linejoin="round"/>
<path d="M71.9648 280.266V228.444H80.1142V239.13H90.9884V234.333H100.707V240.147H113.829V228.444H127.252V236.305H134.485V231.734H147.444V262.26" stroke="#263238" stroke-width="1.46312" stroke-linecap="round" stroke-linejoin="round"/>
<path d="M134.486 236.305V280.266" stroke="#263238" stroke-width="1.46312" stroke-linecap="round" stroke-linejoin="round"/>
<path d="M128.295 242.885V250.733" stroke="#263238" stroke-width="1.46312" stroke-linecap="round" stroke-linejoin="round"/>
<path d="M128.295 256.358V288.591" stroke="#263238" stroke-width="1.46312" stroke-linecap="round" stroke-linejoin="round"/>
<path d="M113.83 240.16V269.116" stroke="#263238" stroke-width="1.46312" stroke-linecap="round" stroke-linejoin="round"/>
<path d="M114.328 278.659V287.675" stroke="#263238" stroke-width="1.46312" stroke-linecap="round" stroke-linejoin="round"/>
<path d="M100.707 240.16V256.358" stroke="#263238" stroke-width="1.46312" stroke-linecap="round" stroke-linejoin="round"/>
<path d="M100.707 266.316V300.445" stroke="#263238" stroke-width="1.46312" stroke-linecap="round" stroke-linejoin="round"/>
<path d="M90.9883 239.13V279.362" stroke="#263238" stroke-width="1.46312" stroke-linecap="round" stroke-linejoin="round"/>
<path d="M80.1133 239.13V254.349" stroke="#263238" stroke-width="1.46312" stroke-linecap="round" stroke-linejoin="round"/>
<path d="M80.1133 262.26V298.436" stroke="#263238" stroke-width="1.46312" stroke-linecap="round" stroke-linejoin="round"/>
<path d="M71.9648 287.675V304.011" stroke="#263238" stroke-width="1.46312" stroke-linecap="round" stroke-linejoin="round"/>
<path d="M55.1523 304.011H154.075" stroke="#263238" stroke-width="1.46312" stroke-linecap="round" stroke-linejoin="round"/>
<path d="M134.486 304.011V293.551" stroke="#263238" stroke-width="1.46312" stroke-linecap="round" stroke-linejoin="round"/>
<path d="M114.328 296.314V303.521" stroke="#263238" stroke-width="1.46312" stroke-linecap="round" stroke-linejoin="round"/>
<path d="M148.547 245.157H158.14" stroke="#263238" stroke-width="1.46312" stroke-linecap="round" stroke-linejoin="round"/>
<path d="M55.5254 313.127H147.441" stroke="#263238" stroke-width="1.46312" stroke-linecap="round" stroke-linejoin="round"/>
<path d="M75.2539 339.71V327.53H92.2809V335.378H105.98V350.685H113.828V327.995H131.22V333.269H141.905" stroke="#263238" stroke-width="1.46312" stroke-linecap="round" stroke-linejoin="round"/>
<path d="M131.221 333.268V346.327" stroke="#263238" stroke-width="1.46312" stroke-linecap="round" stroke-linejoin="round"/>
<path d="M114.328 356.21V365" stroke="#263238" stroke-width="1.46312" stroke-linecap="round" stroke-linejoin="round"/>
<path d="M105.982 350.685V362.262" stroke="#263238" stroke-width="1.46312" stroke-linecap="round" stroke-linejoin="round"/>
<path d="M92.2832 335.378V342.021" stroke="#263238" stroke-width="1.46312" stroke-linecap="round" stroke-linejoin="round"/>
<path d="M830.105 1.52979H396.973V300.786H830.105V1.52979Z" fill="#507FFD" stroke="#263238" stroke-width="2.15284" stroke-linecap="round" stroke-linejoin="round"/>
<path d="M830.105 1.52979H396.973V31.1174H830.105V1.52979Z" fill="#263238"/>
<path d="M572.436 206.709L562.278 192.575C562.276 189.623 562.125 186.674 561.826 183.737C561.447 182.417 555.283 172.712 555.139 170.416C555.116 169.32 554.976 168.229 554.723 167.163C554.723 167.163 551.56 167.958 551.596 169.892C551.632 171.826 551.976 178.351 551.976 178.351C551.976 178.351 543.734 173.543 542.812 172.278C541.89 171.013 531.841 163.638 530.901 162.536C529.961 161.433 526.129 161.361 525.677 162.536L526.22 163.891L523.057 165.391L525.171 171.663C524.566 173.075 524.2 174.578 524.087 176.11C524.43 176.887 525.551 181.532 525.551 181.532C525.551 181.532 524.864 182.237 524.954 184.695C525.045 187.153 538.546 199.715 541.221 201.07C544.416 202.413 547.687 203.565 551.018 204.522L559.494 215.493L572.436 206.709Z" fill="white" stroke="#263238" stroke-width="2.15284" stroke-linecap="round" stroke-linejoin="round"/>
<path d="M551.959 178.351C550.382 181.942 549.977 185.939 550.802 189.774" stroke="#263238" stroke-width="2.15284" stroke-linecap="round" stroke-linejoin="round"/>
<path d="M526.205 163.892C528.934 164.94 532.35 170.037 533.923 171.609C535.345 172.892 536.868 174.059 538.477 175.098" stroke="#263238" stroke-width="2.15284" stroke-linecap="round" stroke-linejoin="round"/>
<path d="M525.156 171.609C527.397 171.139 528.916 172.007 528.862 174.194C528.807 176.381 533.651 179.706 533.651 179.706" stroke="#263238" stroke-width="2.15284" stroke-linecap="round" stroke-linejoin="round"/>
<path d="M525.539 181.478C525.539 181.478 527.112 178.676 528.359 179.96C529.606 181.243 530.003 184.533 532.299 185.219" stroke="#263238" stroke-width="2.15284" stroke-linecap="round" stroke-linejoin="round"/>
<path d="M704.525 191.346C704.525 191.346 668.865 193.551 661.003 196.768C654.55 199.425 609.165 229.302 609.165 229.302C609.165 229.302 582.47 209.167 574.716 202.191C573.22 201.468 571.613 201.003 569.962 200.817L565.895 198.232L555.9 212.312L558.702 216.198C558.702 216.198 559.154 222.47 560.401 224.042C576.993 244.882 608.768 274.054 613.539 276.928C618.311 279.802 660.641 254.751 660.641 254.751L668.503 300.84H794.752C794.752 300.84 794.427 219.958 789.113 213.758C783.799 207.559 722.889 183.249 722.889 183.249L704.525 191.346Z" fill="#757575" stroke="#263238" stroke-width="2.15284" stroke-linecap="round" stroke-linejoin="round"/>
<path d="M747.165 162.084C747.165 162.084 735.85 169.675 741.851 193.931C741.851 193.931 724.807 206.113 707.943 193.822C707.943 193.822 711.829 174.483 707.943 170.597" fill="white"/>
<path d="M747.165 162.084C747.165 162.084 735.85 169.675 741.851 193.931C741.851 193.931 724.807 206.113 707.943 193.822C707.943 193.822 711.829 174.483 707.943 170.597" stroke="#263238" stroke-width="2.15284" stroke-linecap="round" stroke-linejoin="round"/>
<path d="M786.854 217.518C786.854 217.518 771.473 235.212 769.684 265.505" stroke="#263238" stroke-width="2.15284" stroke-linecap="round" stroke-linejoin="round"/>
<path d="M719.166 113.482C719.166 113.482 709.081 111.963 705.556 124.326C703.504 131.898 704.335 139.961 707.888 146.955L726.432 129.55L719.166 113.482Z" fill="#263238"/>
<path d="M743.712 169.458C756.707 153.95 765.889 128.104 746.369 117.784C708.702 97.8658 696.249 136.78 702.575 172.928C704.527 184.08 719.673 179.11 730.752 175.079" fill="white"/>
<path d="M743.712 169.458C756.707 153.95 765.889 128.104 746.369 117.784C708.702 97.8658 696.249 136.78 702.575 172.928C704.527 184.08 719.673 179.11 730.752 175.079" stroke="#263238" stroke-width="2.15284" stroke-linecap="round" stroke-linejoin="round"/>
<path d="M717.395 135.75C717.395 135.75 723.612 137.43 725.185 140.756" stroke="#263238" stroke-width="2.15284" stroke-linecap="round" stroke-linejoin="round"/>
<path d="M708.396 134.105C707.662 133.744 706.848 133.578 706.031 133.622C705.214 133.666 704.423 133.92 703.732 134.358" stroke="#263238" stroke-width="2.15284" stroke-linecap="round" stroke-linejoin="round"/>
<path d="M717.283 144.316C717.174 145.419 717.662 146.377 718.367 146.449C719.072 146.522 719.741 145.672 719.849 144.642C719.958 143.612 719.47 142.563 718.765 142.491C718.06 142.419 717.391 143.196 717.283 144.316Z" fill="#263238"/>
<path d="M703.802 140.973C703.711 142.094 704.199 143.051 704.904 143.124C705.609 143.196 706.278 142.347 706.386 141.316C706.495 140.286 706.007 139.256 705.284 139.184C704.561 139.111 703.91 139.87 703.802 140.973Z" fill="#263238"/>
<path d="M737.909 151.565C737.909 151.565 732.071 160.024 728.148 162.735C725.614 164.357 722.561 164.964 719.599 164.434C719.599 164.434 714.593 158.252 707.291 158.162C705.4 156.958 703.25 156.221 701.019 156.011L701.435 146.576C701.435 146.576 695.886 166.801 696.41 174.049C696.934 181.297 714.755 186.322 723.666 184.297C732.577 182.273 737.113 168.41 739.824 155.378C740.023 154.294 737.909 151.565 737.909 151.565Z" fill="#263238"/>
<path d="M702.104 162.825C702.104 162.825 709.152 166.205 715.424 165.409" stroke="white" stroke-width="2.15284" stroke-linecap="round" stroke-linejoin="round"/>
<path d="M743.746 125.79C746.06 123.983 740.131 116.211 736.806 116.374C733.48 116.536 717.159 117.151 717.159 117.151C717.159 117.151 713.725 99.1851 741.198 108.891C745.698 110.482 747.144 114.693 751.175 116.844C755.205 118.995 760.664 130.309 759.109 139.961C757.555 149.612 752.404 166.548 743.059 171.627C743.059 171.627 739.842 171.302 741.794 169.078C750.994 158.722 741.36 139.238 739.824 155.342L736.589 153.408C736.563 151.64 736.745 149.874 737.131 148.148C737.818 143.72 732.92 134.665 743.746 125.79Z" fill="#263238"/>
<path d="M742.336 150.39C742.336 150.39 748.246 143.377 751.825 145.763C755.404 148.148 753 156.607 751.084 158.722C749.168 160.837 747.614 161.306 744.957 164.686C742.3 168.066 738.956 166.928 739.535 164.216" fill="white"/>
<path d="M742.336 150.39C742.336 150.39 748.246 143.377 751.825 145.763C755.404 148.148 753 156.607 751.084 158.722C749.168 160.837 747.614 161.306 744.957 164.686C742.3 168.066 738.956 166.928 739.535 164.216" stroke="#263238" stroke-width="2.15284" stroke-linecap="round" stroke-linejoin="round"/>
<path d="M724.261 145.22C724.46 149.143 722.074 152.45 718.838 152.613C715.603 152.775 712.964 149.739 712.765 145.817C712.567 141.895 714.952 138.587 718.188 138.424C721.423 138.262 724.026 141.298 724.261 145.22Z" stroke="#263238" stroke-width="1.07642" stroke-miterlimit="10"/>
<path d="M707.599 141.66C707.815 145.582 705.412 148.89 702.267 149.07C699.122 149.251 696.393 146.178 696.176 142.256C695.959 138.334 698.381 135.027 701.598 134.864C704.815 134.701 707.4 137.738 707.599 141.66Z" stroke="#263238" stroke-width="1.07642" stroke-miterlimit="10"/>
<path d="M709.318 138.298C709.318 140.106 699.955 150.788 699.847 153.137C699.738 155.487 708.559 155.631 708.559 155.631" fill="white"/>
<path d="M709.318 138.298C709.318 140.106 699.955 150.788 699.847 153.137C699.738 155.487 708.559 155.631 708.559 155.631" stroke="#263238" stroke-width="2.15284" stroke-linecap="round" stroke-linejoin="round"/>
<path d="M707.596 141.66C707.596 141.66 710.397 140.955 712.747 144.732" stroke="#263238" stroke-width="1.07642" stroke-miterlimit="10"/>
<path d="M724.297 146.594L727.333 147.046L744.377 148.239" stroke="#263238" stroke-width="1.07642" stroke-miterlimit="10"/>
<path d="M776.17 227.152L772.772 222.94C772.772 222.94 744.143 226.212 731.491 243.274C731.491 243.274 707.994 232.176 686.847 237.58L686.232 245.154L732.485 272.825L750.559 265.306L776.17 227.152Z" fill="white" stroke="#263238" stroke-width="2.15284" stroke-linecap="round" stroke-linejoin="round"/>
<path d="M780.816 224.603L775.936 257.137C775.936 257.137 749.005 268.957 743.402 278.464L742.065 278.645L735.739 279.531L732.323 278.518C723.964 276.085 715.45 274.225 706.838 272.952C703.849 272.49 700.816 272.375 697.801 272.608L679.582 244.213C679.582 244.213 707.76 240.309 727.244 246.979L736.57 246.328L736.914 246.039C739.715 243.743 759.344 228.145 780.816 224.603Z" fill="#507FFD"/>
<mask id="mask5_273_1054" style="mask-type:luminance" maskUnits="userSpaceOnUse" x="679" y="224" width="102" height="56">
<path d="M780.814 224.603L775.934 257.137C775.934 257.137 749.004 268.957 743.4 278.464L742.063 278.645L735.737 279.531L732.321 278.519C723.963 276.085 715.448 274.225 706.836 272.952C703.847 272.49 700.815 272.375 697.799 272.608L679.58 244.214C679.58 244.214 707.758 240.309 727.242 246.979L736.568 246.328L736.912 246.039C739.713 243.744 759.342 228.145 780.814 224.603Z" fill="white"/>
</mask>
<g mask="url(#mask5_273_1054)">
<path opacity="0.3" d="M741.706 271.054L736.916 246.021C739.699 243.744 759.328 228.145 780.8 224.603L775.92 257.137C775.92 257.137 748.99 268.957 743.387 278.464L742.049 278.645L741.706 271.054Z" fill="black" fill-opacity="0.7"/>
<path opacity="0.3" d="M732.434 272.825L732.307 278.5C723.949 276.067 715.434 274.207 706.822 272.933C707.204 267.192 709.45 261.733 713.218 257.384C716.986 253.036 722.07 250.036 727.698 248.84L732.434 272.825Z" fill="black" fill-opacity="0.7"/>
</g>
<path d="M780.816 224.603L775.936 257.137C775.936 257.137 749.005 268.957 743.402 278.464L742.065 278.645L735.739 279.531L732.323 278.518C723.964 276.085 715.45 274.225 706.838 272.952C703.849 272.49 700.816 272.375 697.801 272.608L679.582 244.213C679.582 244.213 707.76 240.309 727.244 246.979L736.57 246.328L736.914 246.039C739.715 243.743 759.344 228.145 780.816 224.603Z" stroke="#263238" stroke-width="2.15284" stroke-linecap="round" stroke-linejoin="round"/>
<path d="M741.599 286.399C731.947 285.784 713.584 271 713.584 271C712.479 268.241 710.928 265.682 708.993 263.426C706.372 260.806 709.86 258.619 709.86 258.619C709.86 258.619 706.806 256.649 705.071 255.564C703.336 254.48 706.372 251.624 706.372 251.624C706.372 251.624 719.476 253.431 720.831 252.943C722.187 252.455 734.767 260.589 736.719 260.806C739.37 260.854 741.984 260.173 744.274 258.836C745.575 257.751 749.606 250.973 752.227 249.654C754.847 248.334 759.456 248.352 757.251 251.19C755.046 254.028 755.444 260.354 754.359 261.239C753.275 262.125 751.486 271.632 751.486 274.904L765.764 287.953L757.631 299.033L741.599 286.399Z" fill="white" stroke="#263238" stroke-width="2.15284" stroke-linecap="round" stroke-linejoin="round"/>
<path d="M709.803 258.619C712.369 258.906 714.872 259.607 717.213 260.697" stroke="#263238" stroke-width="2.15284" stroke-linecap="round" stroke-linejoin="round"/>
<path d="M719.522 263.788C719.522 263.788 718.709 267.096 718.492 267.602C718.275 268.108 721.185 271.343 720.769 272.825C720.354 274.307 723.716 278.248 723.716 278.248" stroke="#263238" stroke-width="2.15284" stroke-linecap="round" stroke-linejoin="round"/>
<path d="M716.241 267.601C713.73 266.393 711.313 264.998 709.012 263.426" stroke="#263238" stroke-width="2.15284" stroke-linecap="round" stroke-linejoin="round"/>
<path d="M709.241 185.291L715.495 197.889L741.197 183.646L746.854 196.262L720.628 212.909L715.586 199.877L705.392 209.691L701.939 193.822L709.241 185.291Z" fill="#757575" stroke="#263238" stroke-width="2.15284" stroke-linecap="round" stroke-linejoin="round"/>
<path d="M789.184 213.704C795.419 220.374 817.596 269.283 819.729 300.786H752.167V297.967L744.793 293.647C744.793 293.647 749.366 277.561 762.397 280.073L766.193 285.495L774.598 291.821C774.598 291.821 789.346 292.201 793.63 296.448" fill="#757575"/>
<path d="M789.184 213.704C795.419 220.374 817.596 269.283 819.729 300.786H752.167V297.967L744.793 293.647C744.793 293.647 749.366 277.561 762.397 280.073L766.193 285.495L774.598 291.821C774.598 291.821 789.346 292.201 793.63 296.448" stroke="#263238" stroke-width="2.15284" stroke-linecap="round" stroke-linejoin="round"/>
<path d="M774.602 291.893C774.602 291.893 782.789 280.091 794.827 285.079" stroke="#263238" stroke-width="2.15284" stroke-linecap="round" stroke-linejoin="round"/>
<path d="M771.473 272.825C774.1 277.703 776.442 282.731 778.485 287.881" stroke="#263238" stroke-width="2.15284" stroke-linecap="round" stroke-linejoin="round"/>
<path d="M660.639 254.697C660.639 254.697 655.632 225.525 657.024 215.44L660.639 254.697Z" fill="#757575"/>
<path d="M660.639 254.697C660.639 254.697 655.632 225.525 657.024 215.44" stroke="#263238" stroke-width="2.15284" stroke-linecap="round" stroke-linejoin="round"/>
<path d="M650.629 226.808C650.629 226.808 653.412 241.141 659.666 248.822L650.629 226.808Z" fill="#757575"/>
<path d="M650.629 226.808C650.629 226.808 653.412 241.141 659.666 248.822" stroke="#263238" stroke-width="2.15284" stroke-linecap="round" stroke-linejoin="round"/>
<path d="M609.168 229.32C609.168 229.32 617.03 235.827 612.024 252.058L609.168 229.32Z" fill="#757575"/>
<path d="M609.168 229.32C609.168 229.32 617.03 235.827 612.024 252.058" stroke="#263238" stroke-width="2.15284" stroke-linecap="round" stroke-linejoin="round"/>
<path d="M714.304 210.198C714.304 210.535 714.204 210.864 714.017 211.144C713.829 211.423 713.563 211.641 713.251 211.769C712.94 211.897 712.597 211.93 712.267 211.863C711.937 211.796 711.634 211.632 711.397 211.393C711.161 211.153 711 210.849 710.937 210.518C710.873 210.187 710.909 209.845 711.041 209.535C711.172 209.225 711.393 208.961 711.675 208.776C711.956 208.592 712.287 208.495 712.623 208.499C712.846 208.499 713.066 208.543 713.271 208.628C713.476 208.714 713.662 208.84 713.818 208.998C713.975 209.156 714.098 209.343 714.181 209.549C714.265 209.755 714.307 209.976 714.304 210.198Z" fill="#263238"/>
<path d="M709.855 235.068C710.794 235.068 711.554 234.308 711.554 233.369C711.554 232.431 710.794 231.67 709.855 231.67C708.917 231.67 708.156 232.431 708.156 233.369C708.156 234.308 708.917 235.068 709.855 235.068Z" fill="#263238"/>
<path d="M707.293 287.248C708.231 287.248 708.992 286.488 708.992 285.549C708.992 284.611 708.231 283.85 707.293 283.85C706.354 283.85 705.594 284.611 705.594 285.549C705.594 286.488 706.354 287.248 707.293 287.248Z" fill="#263238"/>
<path d="M487.38 132.225H508.672L519.336 113.771L508.672 95.3351H487.38L476.734 113.771L487.38 132.225Z" stroke="#263238" stroke-width="2.15284" stroke-linecap="round" stroke-linejoin="round"/>
<path d="M484.289 172.675L473.643 154.239H452.352" stroke="#263238" stroke-width="2.15284" stroke-linecap="round" stroke-linejoin="round"/>
<path d="M455.208 113.771H476.5L487.146 95.3354L476.5 76.8815H455.208L444.562 95.3354L455.208 113.771Z" stroke="#263238" stroke-width="2.15284" stroke-linecap="round" stroke-linejoin="round"/>
<path d="M487.38 95.3354H508.672L519.336 76.8815L508.672 58.4457H487.38L476.734 76.8815L487.38 95.3354Z" stroke="#263238" stroke-width="2.15284" stroke-linecap="round" stroke-linejoin="round"/>
<path d="M484.289 95.3353C484.286 94.7654 484.452 94.2073 484.766 93.7319C485.08 93.2566 485.529 92.8855 486.055 92.6657C486.581 92.446 487.16 92.3875 487.719 92.4978C488.278 92.6081 488.792 92.8822 489.195 93.2852C489.598 93.6882 489.872 94.2019 489.982 94.7611C490.093 95.3202 490.034 95.8995 489.814 96.4254C489.595 96.9512 489.224 97.3999 488.748 97.7143C488.273 98.0287 487.715 98.1946 487.145 98.1911C486.387 98.1911 485.661 97.8902 485.126 97.3546C484.59 96.8191 484.289 96.0927 484.289 95.3353Z" fill="#263238"/>
<path d="M442.684 59.4756C444.261 59.4756 445.54 58.1971 445.54 56.6199C445.54 55.0427 444.261 53.7642 442.684 53.7642C441.107 53.7642 439.828 55.0427 439.828 56.6199C439.828 58.1971 441.107 59.4756 442.684 59.4756Z" fill="#263238"/>
<path d="M481.436 172.676C481.436 172.111 481.603 171.559 481.917 171.089C482.231 170.619 482.677 170.253 483.198 170.037C483.72 169.821 484.294 169.764 484.848 169.875C485.402 169.985 485.911 170.257 486.311 170.656C486.71 171.056 486.982 171.564 487.092 172.118C487.202 172.672 487.146 173.247 486.93 173.768C486.714 174.29 486.347 174.736 485.878 175.05C485.408 175.364 484.856 175.531 484.291 175.531C483.534 175.531 482.808 175.23 482.272 174.695C481.736 174.159 481.436 173.433 481.436 172.676Z" fill="#263238"/>
<path d="M452.356 157.095C453.933 157.095 455.211 155.817 455.211 154.239C455.211 152.662 453.933 151.384 452.356 151.384C450.779 151.384 449.5 152.662 449.5 154.239C449.5 155.817 450.779 157.095 452.356 157.095Z" fill="#263238"/>
<path d="M539.906 77.37C539.906 76.8008 540.075 76.2445 540.392 75.7715C540.709 75.2985 541.158 74.9302 541.685 74.7132C542.211 74.4963 542.79 74.4404 543.347 74.5528C543.905 74.6651 544.417 74.9406 544.819 75.3444C545.22 75.7481 545.492 76.2618 545.601 76.8205C545.71 77.3791 545.65 77.9575 545.43 78.4823C545.21 79.0071 544.839 79.4547 544.364 79.7683C543.889 80.0819 543.331 80.2474 542.762 80.2438C542.385 80.2438 542.013 80.1693 541.665 80.0247C541.317 79.88 541.002 79.6681 540.736 79.401C540.471 79.1339 540.261 78.8169 540.119 78.4684C539.976 78.1198 539.904 77.7465 539.906 77.37Z" fill="#263238"/>
<path d="M473.428 157.095C475.005 157.095 476.284 155.817 476.284 154.239C476.284 152.662 475.005 151.384 473.428 151.384C471.851 151.384 470.572 152.662 470.572 154.239C470.572 155.817 471.851 157.095 473.428 157.095Z" fill="#263238"/>
<path d="M516.408 77.37C516.408 76.8016 516.577 76.246 516.893 75.7734C517.208 75.3008 517.657 74.9325 518.182 74.715C518.707 74.4975 519.285 74.4405 519.843 74.5514C520.4 74.6623 520.912 74.936 521.314 75.3379C521.716 75.7398 521.99 76.2519 522.101 76.8094C522.211 77.3669 522.155 77.9447 521.937 78.4698C521.72 78.9949 521.351 79.4437 520.879 79.7595C520.406 80.0753 519.85 80.2439 519.282 80.2439C518.52 80.2439 517.789 79.9411 517.25 79.4021C516.711 78.8632 516.408 78.1322 516.408 77.37Z" fill="#263238"/>
<path d="M484.289 132.225C484.286 131.655 484.452 131.097 484.766 130.622C485.08 130.146 485.529 129.775 486.055 129.555C486.581 129.336 487.16 129.277 487.719 129.387C488.278 129.498 488.792 129.772 489.195 130.175C489.598 130.578 489.872 131.092 489.982 131.651C490.093 132.21 490.034 132.789 489.814 133.315C489.595 133.841 489.224 134.29 488.748 134.604C488.273 134.918 487.715 135.084 487.145 135.081C486.389 135.076 485.665 134.774 485.131 134.239C484.596 133.705 484.294 132.981 484.289 132.225Z" fill="#263238"/>
<path d="M519.332 77.3696H542.774" stroke="#263238" stroke-width="2.15284" stroke-linecap="round" stroke-linejoin="round"/>
<path d="M487.146 132.225L473.428 154.24" stroke="#263238" stroke-width="2.15284" stroke-linecap="round" stroke-linejoin="round"/>
<path d="M455.207 76.8814L442.682 56.6201" stroke="#263238" stroke-width="2.15284" stroke-linecap="round" stroke-linejoin="round"/>
<path d="M430.666 221.349C432.585 219.621 434.739 218.173 437.064 217.048C437.158 217.628 437.471 218.15 437.938 218.507C438.406 218.863 438.992 219.027 439.577 218.964C440.86 218.765 442.306 217.5 443.192 218.421C443.553 218.783 443.625 219.361 444.005 219.705C445.162 220.771 447.132 218.476 448.433 219.343C448.776 219.578 448.957 219.976 449.319 220.211C449.604 220.334 449.912 220.398 450.222 220.398C450.533 220.398 450.841 220.334 451.126 220.211C454.355 219.475 457.67 219.189 460.977 219.361L476.141 219.47L474.984 218.873" stroke="#263238" stroke-width="2.15284" stroke-linecap="round" stroke-linejoin="round"/>
<path d="M429.85 234.002C429.976 233.408 430.306 232.877 430.783 232.5C431.259 232.124 431.853 231.926 432.46 231.941C433.067 231.957 433.649 232.183 434.107 232.583C434.564 232.982 434.868 233.529 434.965 234.128C435.34 233.953 435.675 233.702 435.949 233.391C436.223 233.08 436.429 232.715 436.555 232.321C437.531 234.508 440.55 234.688 442.953 234.526L453.672 233.767C456.889 233.532 460.648 232.953 462.094 230.152C463.683 233.051 464.316 236.378 463.902 239.659C464.896 237.298 466.19 235.074 467.751 233.044C468.077 234.2 468.402 235.357 468.709 236.514C476.174 231.29 486.386 234.706 495.423 233.568" stroke="#263238" stroke-width="2.15284" stroke-linecap="round" stroke-linejoin="round"/>
<path d="M430.81 250.756C430.776 250.424 430.866 250.09 431.063 249.82C431.259 249.55 431.549 249.362 431.876 249.292C431.977 249.62 432.145 249.924 432.368 250.184C432.591 250.445 432.865 250.657 433.173 250.808C433.481 250.959 433.817 251.045 434.16 251.061C434.502 251.077 434.845 251.022 435.166 250.901C436.456 250.359 437.561 249.455 438.347 248.298C438.616 248.517 438.929 248.676 439.265 248.764C439.601 248.852 439.951 248.867 440.293 248.809C440.635 248.751 440.961 248.621 441.249 248.426C441.537 248.232 441.78 247.979 441.962 247.684C442.768 248.99 443.435 250.377 443.95 251.823C444.926 249.329 448.233 248.931 450.927 248.949H472.616" stroke="#263238" stroke-width="2.15284" stroke-linecap="round" stroke-linejoin="round"/>
<path d="M598.462 54.0356C593.285 53.91 588.208 55.4774 584.002 58.5C578.797 61.8257 573.845 67.4287 575.146 73.4655C576.447 79.5023 583.569 82.7015 589.84 83.9125C595.234 84.9628 600.722 85.4475 606.216 85.3584C608.332 85.3903 610.444 85.1657 612.506 84.6897C614.59 84.0992 616.612 83.3062 618.542 82.3219L632.532 75.7429C634.448 74.8392 636.599 73.6824 637.123 71.6219C637.773 69.0735 635.586 66.7057 633.508 65.1694C625.656 59.5536 615.972 57.1132 606.396 58.3373" stroke="#263238" stroke-width="2.15284" stroke-linecap="round" stroke-linejoin="round"/>
<path d="M581.854 67.5551C582.676 66.6314 583.74 65.9554 584.926 65.6031C584.691 66.2945 584.691 67.0444 584.926 67.7359C585.252 68.3865 586.246 68.7119 586.734 68.1696C587.222 67.6274 587.33 66.7598 587.872 67.031L588.523 68.4769C589.409 68.1696 590.095 67.4467 590.963 67.0671C591.951 66.7357 593.003 66.6367 594.036 66.7779C601.796 67.1763 609.575 66.9405 617.297 66.073" stroke="#263238" stroke-width="2.15284" stroke-linecap="round" stroke-linejoin="round"/>
<path d="M594.504 75.3274C594.617 74.958 594.815 74.6202 595.081 74.3409C595.348 74.0616 595.676 73.8485 596.04 73.7188C595.625 74.1706 596.131 74.9478 596.745 75.0563C597.369 75.0675 597.986 74.9378 598.553 74.6767C599.238 74.4997 599.941 74.4026 600.649 74.3875L613.825 73.4838" stroke="#263238" stroke-width="2.15284" stroke-linecap="round" stroke-linejoin="round"/>
<path d="M600.131 93.6906C596.319 107.276 588.415 119.358 577.494 128.294C566.573 137.229 553.165 142.584 539.094 143.63" stroke="#263238" stroke-width="2.15284" stroke-linecap="round" stroke-linejoin="round"/>
<path d="M539.308 139.707C536.752 141.287 534.474 143.278 532.566 145.6C533.694 145.363 534.866 145.444 535.951 145.834C537.036 146.223 537.991 146.905 538.712 147.805" stroke="#263238" stroke-width="2.15284" stroke-linecap="round" stroke-linejoin="round"/>
<path d="M595.793 144.01L597.438 147.624L599.787 144.841C600.227 145.169 600.535 145.643 600.655 146.178C600.836 146.685 601.107 147.245 601.613 147.389C602.119 147.534 602.752 146.847 602.372 146.468C602.705 146.693 603.082 146.843 603.478 146.909C603.874 146.974 604.28 146.953 604.667 146.847C605.011 146.847 605.318 146.594 605.662 146.504C606.071 146.414 606.49 146.378 606.909 146.395H631.327" stroke="#263238" stroke-width="2.15284" stroke-linecap="round" stroke-linejoin="round"/>
<path d="M596.928 163.892C597.043 163.602 597.231 163.347 597.473 163.152C597.716 162.956 598.005 162.827 598.312 162.776C598.619 162.725 598.935 162.754 599.227 162.861C599.52 162.968 599.78 163.149 599.982 163.386C600.063 163.617 600.185 163.831 600.344 164.018C600.561 164.172 600.829 164.238 601.093 164.205C601.357 164.172 601.599 164.04 601.772 163.837C602.169 163.476 602.422 162.988 602.838 162.663C603.977 161.777 605.603 162.464 606.995 162.843C608.777 163.216 610.606 163.314 612.417 163.132L626.28 162.41" stroke="#263238" stroke-width="2.15284" stroke-linecap="round" stroke-linejoin="round"/>
<path d="M597.361 179.255C597.823 179.267 598.275 179.124 598.645 178.849C599.015 178.573 599.282 178.182 599.404 177.737C599.633 177.775 599.845 177.882 600.013 178.043C600.181 178.205 600.296 178.413 600.344 178.64C601.007 178.23 601.574 177.681 602.006 177.032C610.935 177.14 619.876 177.14 628.829 177.032" stroke="#263238" stroke-width="2.15284" stroke-linecap="round" stroke-linejoin="round"/>
<path d="M597.346 190.732C597.899 190.96 598.517 190.976 599.081 190.776C599.645 190.575 600.115 190.173 600.4 189.647C600.967 190.106 601.362 190.743 601.521 191.455C601.877 191.213 602.279 191.048 602.703 190.971C603.126 190.893 603.56 190.904 603.979 191.003C604.322 191.003 604.666 191.238 605.009 191.328C605.876 191.55 606.774 191.629 607.666 191.563L638.826 191.111" stroke="#263238" stroke-width="2.15284" stroke-linecap="round" stroke-linejoin="round"/>
<path d="M513.678 263.806L527.83 262.433C527.968 262.451 528.108 262.434 528.238 262.384C528.367 262.334 528.482 262.252 528.572 262.146C528.662 262.04 528.724 261.913 528.752 261.777C528.78 261.64 528.774 261.499 528.733 261.366V252.329C528.768 252.029 528.691 251.726 528.517 251.48C528.4 251.373 528.263 251.292 528.114 251.239C527.965 251.186 527.807 251.163 527.649 251.172C524.576 250.901 517.654 249.365 514.997 251.443C512.34 253.522 513.696 260.715 513.678 263.806Z" stroke="#263238" stroke-width="2.15284" stroke-linecap="round" stroke-linejoin="round"/>
<path d="M517.727 255.745C517.907 256.594 518.07 257.444 518.251 258.312C520.395 257.864 522.596 257.748 524.776 257.968" stroke="#263238" stroke-width="2.15284" stroke-linecap="round" stroke-linejoin="round"/>
<path d="M524.939 267.71C524.806 267.914 524.734 268.151 524.729 268.393C524.724 268.636 524.787 268.876 524.911 269.084C525.035 269.293 525.215 269.463 525.431 269.575C525.647 269.686 525.889 269.736 526.131 269.717C527.089 269.536 527.849 268.253 528.734 268.65" stroke="#263238" stroke-width="2.15284" stroke-linecap="round" stroke-linejoin="round"/>
<path d="M515.197 246.87C515.376 246.601 515.629 246.39 515.926 246.262C516.223 246.135 516.55 246.096 516.869 246.152C517.187 246.207 517.482 246.355 517.718 246.575C517.954 246.796 518.121 247.08 518.198 247.394L521.596 246.997" stroke="#263238" stroke-width="2.15284" stroke-linecap="round" stroke-linejoin="round"/>
<path d="M543.393 276.838C548.213 276.838 553.033 276.838 557.853 276.838C561.599 276.887 565.344 276.663 569.059 276.169C569.475 276.146 569.871 275.98 570.179 275.699C570.435 275.33 570.545 274.879 570.487 274.434V252.455C570.487 252.202 548.345 251.497 545.761 253.287C540.555 256.938 543.393 271.217 543.393 276.838Z" stroke="#263238" stroke-width="2.15284" stroke-linecap="round" stroke-linejoin="round"/>
<path d="M551.233 258.962L554.685 259.053C554.064 261.401 553.082 263.638 551.775 265.686C551.305 266.318 550.745 267.114 551.088 267.819C552.896 268.108 555.011 268.27 556.149 266.879C557.631 265.071 556.33 262.234 557.451 260.209L557.884 264.493L559.385 265.921C559.775 266.357 560.265 266.692 560.812 266.897C561.087 266.992 561.386 266.991 561.659 266.892C561.932 266.793 562.163 266.603 562.313 266.355" stroke="#263238" stroke-width="2.15284" stroke-linecap="round" stroke-linejoin="round"/>
<path d="M561.287 280.525C562.426 280.11 562.896 282.242 564.071 282.55C565.245 282.857 565.878 281.302 566.872 280.616C567.344 280.303 567.912 280.171 568.474 280.244C569.035 280.317 569.551 280.59 569.927 281.013" stroke="#263238" stroke-width="2.15284" stroke-linecap="round" stroke-linejoin="round"/>
<path d="M551.959 245.75C553.043 246.021 552.61 247.829 553.423 248.606C554.236 249.383 555.592 248.606 556.514 247.865C557.435 247.124 559.116 246.798 559.46 247.865" stroke="#263238" stroke-width="2.15284" stroke-linecap="round" stroke-linejoin="round"/>
<path d="M830.105 300.37H396.973V330.952H830.105V300.37Z" fill="#BFBFBF" stroke="#263238" stroke-width="2.15284" stroke-linecap="round" stroke-linejoin="round"/>
<path d="M749.965 312.408H466.957V318.915H749.965V312.408Z" fill="#263238"/>
<path d="M627.456 315.715C627.456 316.656 627.178 317.575 626.655 318.356C626.133 319.138 625.39 319.747 624.522 320.107C623.653 320.467 622.697 320.561 621.775 320.378C620.853 320.194 620.006 319.742 619.342 319.077C618.677 318.412 618.224 317.565 618.041 316.643C617.857 315.721 617.951 314.765 618.311 313.896C618.671 313.028 619.28 312.285 620.062 311.763C620.844 311.241 621.763 310.962 622.703 310.962C623.963 310.962 625.173 311.463 626.064 312.354C626.955 313.246 627.456 314.455 627.456 315.715Z" fill="#507FFD" stroke="#263238" stroke-width="2.15284" stroke-linecap="round" stroke-linejoin="round"/>
<path d="M816.079 309.805H804.367V321.518H816.079V309.805Z" stroke="#263238" stroke-width="2.15284" stroke-linecap="round" stroke-linejoin="round"/>
<path d="M796.429 309.805H784.717V321.518H796.429V309.805Z" stroke="#263238" stroke-width="2.15284" stroke-linecap="round" stroke-linejoin="round"/>
<path d="M430.789 309.679H410.383V321.644H430.789V309.679Z" stroke="#263238" stroke-width="2.15284" stroke-linecap="round" stroke-linejoin="round"/>
<path d="M410.148 16.3143H487.145" stroke="white" stroke-width="2.15284" stroke-linecap="round" stroke-linejoin="round"/>
<path d="M819.136 16.0436C819.139 16.9424 818.876 17.822 818.379 18.5708C817.882 19.3197 817.173 19.9039 816.344 20.2495C815.514 20.5951 814.6 20.6865 813.719 20.512C812.837 20.3376 812.027 19.9051 811.391 19.2696C810.756 18.634 810.323 17.824 810.149 16.9423C809.974 16.0606 810.066 15.1469 810.411 14.3172C810.757 13.4875 811.341 12.7792 812.09 12.2821C812.839 11.785 813.718 11.5215 814.617 11.5251C815.816 11.5251 816.965 12.0011 817.812 12.8485C818.66 13.6959 819.136 14.8452 819.136 16.0436Z" stroke="white" stroke-width="2.15284" stroke-linecap="round" stroke-linejoin="round"/>
<path d="M801.258 16.314C801.258 17.2077 800.993 18.0814 800.496 18.8244C800 19.5675 799.294 20.1467 798.468 20.4887C797.643 20.8307 796.734 20.9202 795.858 20.7458C794.981 20.5715 794.176 20.1411 793.544 19.5092C792.912 18.8772 792.482 18.0721 792.308 17.1956C792.133 16.3191 792.223 15.4105 792.565 14.5849C792.907 13.7592 793.486 13.0535 794.229 12.557C794.972 12.0605 795.846 11.7955 796.739 11.7955C797.938 11.7955 799.087 12.2715 799.934 13.1189C800.782 13.9663 801.258 15.1156 801.258 16.314Z" stroke="white" stroke-width="2.15284" stroke-linecap="round" stroke-linejoin="round"/>
<path d="M783.381 16.6038C783.377 17.4967 783.109 18.3685 782.611 19.1092C782.112 19.8499 781.405 20.4263 780.579 20.7655C779.753 21.1047 778.845 21.1916 777.97 21.0153C777.094 20.8389 776.291 20.4071 775.661 19.7745C775.031 19.1418 774.602 18.3366 774.429 17.4606C774.256 16.5846 774.347 15.677 774.689 14.8524C775.032 14.0278 775.611 13.3231 776.354 12.8274C777.096 12.3317 777.969 12.0671 778.862 12.0671C779.457 12.0671 780.046 12.1846 780.596 12.4128C781.145 12.641 781.644 12.9755 782.064 13.397C782.484 13.8185 782.816 14.3187 783.042 14.869C783.268 15.4194 783.383 16.0089 783.381 16.6038Z" stroke="white" stroke-width="2.15284" stroke-linecap="round" stroke-linejoin="round"/>
</svg>
